<?xml version="1.0" encoding="UTF-8" standalone="no"?>
<!DOCTYPE svg PUBLIC "-//W3C//DTD SVG 1.1//EN" "http://www.w3.org/Graphics/SVG/1.1/DTD/svg11.dtd">
<svg width="100%" height="100%" viewBox="0 0 256 256" version="1.1" xmlns="http://www.w3.org/2000/svg" xmlns:xlink="http://www.w3.org/1999/xlink" xml:space="preserve" xmlns:serif="http://www.serif.com/" style="fill-rule:evenodd;clip-rule:evenodd;stroke-linejoin:round;stroke-miterlimit:2;">
    <rect id="unmute" x="0" y="0" width="256" height="256" style="fill:none;"/>
    <g id="unmute1" serif:id="unmute">
        <g>
            <g transform="matrix(3.27607,0,0,3.27607,-35.7749,-35.8024)">
                <path d="M48.738,50.086C48.738,59.02 48.75,67.949 48.715,76.883C48.703,77.485 48.496,78.067 48.125,78.539C47.539,79.25 46.566,79.137 45.683,78.414C42.383,75.715 39.082,73.012 35.785,70.309C33.336,68.305 30.879,66.313 28.445,64.285L28.445,64.289C28.012,63.902 27.441,63.695 26.855,63.711C22.832,63.738 18.808,63.727 14.781,63.723L14.781,63.727C13.734,63.844 12.688,63.481 11.942,62.735C11.192,61.988 10.824,60.945 10.942,59.895C10.938,53.297 10.938,46.696 10.942,40.098C10.828,39.051 11.199,38.004 11.949,37.262C12.699,36.52 13.746,36.156 14.793,36.277C18.738,36.274 22.68,36.258 26.625,36.293C27.34,36.32 28.039,36.074 28.582,35.606C34.254,30.934 39.937,26.274 45.633,21.633C46.539,20.89 47.485,20.734 48.071,21.418L48.075,21.418C48.469,21.902 48.692,22.504 48.711,23.129C48.75,31.66 48.739,40.188 48.739,48.719L48.738,50.086Z" style="fill:white;fill-rule:nonzero;"/>
            </g>
            <g transform="matrix(3.27607,0,0,3.27607,-35.7749,-35.8024)">
                <path d="M59.664,65.855L57.02,63.214L57.023,63.214C56.711,62.906 56.535,62.488 56.535,62.05C56.535,61.613 56.707,61.191 57.02,60.882L67.864,50.05L57.005,39.191C56.696,38.883 56.524,38.465 56.524,38.027C56.528,37.59 56.7,37.172 57.008,36.867L59.54,34.32L59.544,34.32C59.852,34.008 60.27,33.832 60.712,33.832C61.149,33.832 61.571,34.004 61.88,34.316L72.739,45.175L83.583,34.308C83.891,34 84.313,33.824 84.751,33.824C85.192,33.824 85.61,34 85.919,34.312L88.473,36.875C89.118,37.519 89.118,38.562 88.473,39.207L77.711,49.957L88.578,60.812C88.887,61.12 89.063,61.542 89.063,61.98C89.063,62.421 88.887,62.839 88.574,63.152L86.082,65.632C85.438,66.273 84.391,66.273 83.75,65.628L73,54.858L62,65.858C61.688,66.167 61.27,66.339 60.832,66.339C60.395,66.339 59.973,66.167 59.664,65.854L59.664,65.855Z" style="fill:white;fill-rule:nonzero;"/>
            </g>
        </g>
    </g>
</svg>
