<?xml version="1.0" encoding="UTF-8" standalone="no"?>
<!DOCTYPE svg PUBLIC "-//W3C//DTD SVG 1.1//EN" "http://www.w3.org/Graphics/SVG/1.1/DTD/svg11.dtd">
<svg width="100%" height="100%" viewBox="0 0 720 469" version="1.1" xmlns="http://www.w3.org/2000/svg" xmlns:xlink="http://www.w3.org/1999/xlink" xml:space="preserve" xmlns:serif="http://www.serif.com/" style="fill-rule:evenodd;clip-rule:evenodd;stroke-linejoin:round;stroke-miterlimit:2;">
    <g transform="matrix(1,0,0,1,349.836,40.6843)">
        <path d="M0,0C3.39,0 6.78,-0.02 10.18,-0.05C44.58,-0.15 73.89,9.46 98.73,33.87C119.54,54.89 130.24,82.58 130.37,112C130.37,113.01 130.38,114.03 130.38,115.07C130.39,117.21 130.4,119.35 130.4,121.49C130.41,124.71 130.44,127.93 130.48,131.15C130.65,165.73 120.44,194.3 96.16,219.32C89.21,226.29 81.74,231.51 73.16,236.32C72.06,236.94 70.96,237.56 69.82,238.19C53.76,246.72 36.37,250.63 18.21,250.62C17.12,250.62 16.02,250.63 14.89,250.63C12.59,250.64 10.28,250.64 7.98,250.63C4.5,250.63 1.03,250.65 -2.44,250.68C-32.84,250.76 -59.04,243.78 -82.84,224.32C-83.51,223.78 -84.18,223.25 -84.88,222.7C-89.39,219.01 -93.16,214.82 -96.84,210.32C-97.55,209.45 -98.26,208.59 -99,207.7C-105.25,199.78 -109.66,191.45 -113.84,182.32C-114.25,181.44 -114.66,180.57 -115.08,179.67C-117.32,174.56 -118.71,169.28 -120.02,163.88C-120.19,163.2 -120.36,162.52 -120.53,161.82C-123.12,150.56 -123.02,139.13 -123.02,127.65C-123.02,125.08 -123.04,122.52 -123.06,119.96C-123.11,107.01 -122.51,94.21 -118.59,81.75C-118.37,81.05 -118.16,80.35 -117.93,79.62C-108.81,50.72 -89.01,26.43 -62.12,12.32C-42,2.24 -22.25,-0.04 0,0ZM-85.21,46.82C-89.73,51.97 -93.45,57.36 -96.84,63.32C-97.36,64.23 -97.88,65.14 -98.42,66.08C-101.48,71.77 -103.72,77.53 -105.59,83.69C-105.79,84.34 -105.98,84.98 -106.19,85.65C-109.87,98.57 -110.21,111.68 -110.15,125C-110.15,125.84 -110.14,126.68 -110.14,127.55C-110,158.53 -103.2,185.77 -80.82,208.42C-61.63,227.22 -37.19,237.59 -10.27,237.65C-8.67,237.66 -8.67,237.66 -7.03,237.67C-4.77,237.68 -2.52,237.69 -0.26,237.69C3.13,237.69 6.51,237.73 9.9,237.76C39.85,237.92 65.3,230.56 87.16,209.32C87.85,208.69 88.53,208.07 89.24,207.43C106.06,191.67 116.2,167.93 117.27,145.02C117.33,142.52 117.35,140.01 117.37,137.51C117.37,136.58 117.38,135.66 117.38,134.7C117.39,132.75 117.4,130.8 117.4,128.85C117.41,125.92 117.44,122.99 117.48,120.06C117.63,92.59 111.09,66.94 92.16,46.32C90.9,44.93 90.9,44.93 89.6,43.51C73.07,26.19 49.98,14.29 25.76,13.21C22.95,13.15 20.14,13.12 17.32,13.11C16.28,13.11 15.24,13.1 14.17,13.1C11.98,13.09 9.78,13.08 7.58,13.08C4.27,13.07 0.96,13.03 -2.35,13C-35.45,12.84 -62.34,22.6 -85.21,46.82Z" style="fill-rule:nonzero;"/>
    </g>
    <g transform="matrix(1,0,0,1,353.43,69.6289)">
        <path d="M0,0C2.57,0.37 2.57,0.37 4.27,2.09C10.3,11.96 14,20.33 11.37,31.91C9.61,37.35 6.2,42.94 1.57,46.37C-3.01,45.91 -5.03,43.04 -7.81,39.66C-12.52,33 -12.93,26.59 -12.07,18.59C-10.86,12.54 -6.88,1.05 0,0ZM-0.43,12.37C-3.26,17.42 -5.28,21.99 -3.82,27.82C-3.08,30.03 -2.3,32.21 -1.43,34.37L1.57,34.37C4,29.01 4.16,24.18 3.57,18.37C2.26,14.81 2.26,14.81 0.57,12.37L-0.43,12.37Z" style="fill-rule:nonzero;"/>
    </g>
    <g transform="matrix(1,0,0,1,303.316,74.7812)">
        <path d="M0,0C5.27,0.43 8.9,4.35 12.43,8.05C17.24,13.93 19.26,20.22 20.06,27.72C19.55,32.45 18.67,36.88 16.68,41.22C14,43.34 14,43.34 11.68,44.22C8.71,42.57 5.74,40.92 2.68,39.22L2.68,37.22L0.68,37.22C-0.79,35.17 -0.79,35.17 -2.38,32.47C-3.17,31.15 -3.17,31.15 -3.98,29.8C-7.46,23.09 -7.32,14.67 -5.68,7.4C-3.35,0.32 -3.35,0.32 0,0ZM2.68,11.22C1.14,12.76 1.48,14.2 1.43,16.34C1.52,23.12 4.06,28.29 8.68,33.22L10.68,33.22C12.1,27.18 11.36,22.82 8.68,17.22C7.16,14.95 5.6,13.19 3.68,11.22L2.68,11.22Z" style="fill-rule:nonzero;"/>
    </g>
    <g transform="matrix(1,0,0,1,406.625,74.4375)">
        <path d="M0,0C2.38,0.56 2.38,0.56 4.12,2.81C7.43,10.09 7.58,18.83 5.62,26.53C2.75,34 -1.45,39.77 -8.62,43.56C-11.88,44.12 -11.88,44.12 -14.62,43.56C-18.94,39.86 -19.45,33.5 -19.94,28.12C-18.95,16.89 -13.19,9.71 -5.12,2.25C-2.62,0.56 -2.62,0.56 0,0ZM-3.62,11.56C-8.21,16.85 -11.05,21.49 -11.62,28.56C-11.37,31.47 -11.37,31.47 -10.62,33.56C-6.4,32.05 -4.82,29.35 -2.62,25.56C-1.67,22.59 -1.52,19.92 -1.56,16.81C-1.57,16.01 -1.58,15.21 -1.59,14.39C-1.6,13.79 -1.61,13.18 -1.62,12.56C-2.29,12.23 -2.94,11.9 -3.62,11.56Z" style="fill-rule:nonzero;"/>
    </g>
    <g transform="matrix(1,0,0,1,331.562,103.938)">
        <path d="M0,0C6.4,1.98 10.82,7.31 13.94,13.12C17.61,22.62 16.15,33.03 12.31,42.18C11.88,43.11 11.88,43.11 11.44,44.06C8.01,45.02 6.2,45.47 3,43.75C-3.98,36.43 -8.85,28.71 -9.94,18.56C-9.32,12.81 -7.11,0.17 0,0ZM0.44,11.06C-1.87,17.74 -1.46,21.65 1.44,28.06C2.84,31.02 2.84,31.02 4.44,33.06L6.44,33.06C8.4,27.16 8.3,21.15 5.62,15.5C4.06,12.52 3.8,12.18 0.44,11.06Z" style="fill-rule:nonzero;"/>
    </g>
    <g transform="matrix(1,0,0,1,379.438,104.125)">
        <path d="M0,0C2.56,0.88 2.56,0.88 4.19,2.88C8.07,11.34 9.94,18.11 7,27.25C4.27,34.29 -0,40.73 -6.44,44.88C-9,44.88 -9,44.88 -11.44,43.88C-17.12,36.72 -17.25,27.6 -16.44,18.88C-14.7,11.06 -10.53,5.92 -4.44,0.88C-2.44,-0.12 -2.44,-0.12 0,0ZM-3.44,10.88C-7.14,15.81 -8.58,19.35 -8.56,25.44C-8.57,26.2 -8.57,26.97 -8.57,27.75C-8.52,30.06 -8.52,30.06 -7.44,32.88L-5.44,32.88C-2.22,27.65 0.44,23.18 0.56,16.88C-0.27,13.54 -0.27,13.54 -1.44,10.88L-3.44,10.88Z" style="fill-rule:nonzero;"/>
    </g>
    <g transform="matrix(1,0,0,1,292,114)">
        <path d="M0,0C7.4,3.91 12.95,8.96 16.14,16.8C17.1,20.37 17.3,23.49 17.31,27.19C17.33,28.4 17.35,29.61 17.36,30.86C17,34 17,34 15.77,35.95C12.64,37.8 10.02,36.73 6.63,35.93C-1.24,33.16 -7.08,26.83 -10.75,19.5C-13.05,13.07 -13.41,6.78 -13,0C-10.31,-5.39 -4.15,-1.8 0,0ZM-4,8C-4.45,14.31 -2.73,18 1.38,22.75C3.9,24.91 5.85,26.01 9,27C8.49,19.59 6.59,15.11 0.88,10.12C-1.67,7.8 -1.67,7.8 -4,8Z" style="fill-rule:nonzero;"/>
    </g>
    <g transform="matrix(1,0,0,1,434,112)">
        <path d="M0,0C2.66,5.33 1.29,12.78 -0.25,18.31C-3.07,26.55 -8.42,32.99 -16.12,37.14C-19.98,38.74 -23.06,39.62 -27,38C-30.27,33.09 -29.54,27.73 -29,22C-26.77,13.83 -22.16,8.16 -15.06,3.75C-4.73,-2.1 -4.73,-2.1 0,0ZM-16.09,15C-19.48,18.55 -20.87,21.98 -21.19,26.94C-21.13,27.62 -21.06,28.3 -21,29C-17.06,28.42 -14.83,26.76 -12,24C-8.99,19.42 -7.44,15.57 -8,10C-11.49,10 -13.59,12.75 -16.09,15Z" style="fill-rule:nonzero;"/>
    </g>
    <g transform="matrix(1,0,0,1,268,134)">
        <path d="M0,0C7.49,3.35 12.46,7.54 16,15C18.34,21.25 19.73,27.33 19,34C15.62,36.25 15.21,36.23 11.44,35.5C2.62,33.48 -5.05,28.65 -10,21C-13.84,14.41 -13.31,7.42 -13,0C-8.27,-2.8 -5,-1.75 0,0ZM-5,8C-4.87,14.03 -2.96,16.91 1.15,21.27C3.81,23.76 6.25,26 10,26C9.04,19.54 7.71,15.6 3,11C-0.02,8.84 -1.27,8 -5,8Z" style="fill-rule:nonzero;"/>
    </g>
    <g transform="matrix(1,0,0,1,461,138)">
        <path d="M0,0C0.83,8.01 -1.13,14.01 -6.19,20.25C-11.76,26.23 -19.4,29.67 -27.59,30.15C-34.52,30.24 -34.52,30.24 -37,29C-38.11,20.83 -33.73,13.75 -29.04,7.3C-22.45,-0.14 -9.02,-6.02 0,0ZM-21.96,11.68C-24.62,14.7 -26.22,17.01 -27,21C-20.24,20.46 -16.34,18.47 -11.69,13.56C-9.96,10.94 -9.35,9.09 -9,6C-13.39,6 -18.74,8.92 -21.96,11.68Z" style="fill-rule:nonzero;"/>
    </g>
    <g transform="matrix(1,0,0,1,353.531,140.477)">
        <path d="M0,0C2.47,0.52 2.47,0.52 4.16,2.25C9.38,10.78 13.69,18.79 12.07,29.07C10.5,35.06 7.87,41.07 3.47,45.52C0.93,46.4 0.93,46.4 -1.53,46.52C-7.44,41.77 -10.98,35.91 -12.53,28.52C-13.48,18.61 -9.92,10.36 -4.45,2.32C-2.53,0.52 -2.53,0.52 0,0ZM-0.53,12.52C-4.23,18.07 -4.43,23.99 -3.53,30.52C-2.11,33.33 -2.11,33.33 -0.53,35.52C2.23,33 3.32,31.11 3.67,27.29C3.78,21.53 3.14,17.64 0.47,12.52L-0.53,12.52Z" style="fill-rule:nonzero;"/>
    </g>
    <g transform="matrix(1,0,0,1,316,148)">
        <path d="M0,0C8.09,0.98 14.55,6.75 19.56,12.87C23.85,19.22 25,26.46 24,34C22.5,37.62 22.5,37.62 21,40C13.34,39.67 7.91,35.98 2.62,30.56C-2.14,23.04 -3.65,15.75 -3,7C-1.54,1.54 -1.54,1.54 0,0ZM4,9C3.69,14.88 3.89,19.86 7,25C9.45,27.64 12.02,29.98 15,32L17,32C17.35,25.35 16.85,20.37 12.35,15.04C8.7,11.23 8.7,11.23 4,9Z" style="fill-rule:nonzero;"/>
    </g>
    <g transform="matrix(1,0,0,1,398,148)">
        <path d="M0,0C2,2 2,2 2.38,5.88C2.13,14.65 -0.79,22.99 -6.95,29.31C-12.65,34.01 -18.8,36.4 -26.09,37.25C-28,37 -28,37 -29.73,35.75C-32.12,32.45 -31.53,28.89 -31,25C-28.81,16.55 -24.56,9.71 -16.98,5.21C-5.86,-0.45 -5.86,-0.45 0,0ZM-18,16C-20.54,19.06 -21.91,21.91 -22.25,25.94C-22.17,26.62 -22.08,27.3 -22,28C-15,25.62 -10.95,21.89 -7.62,15.25C-6.87,12.91 -6.87,12.91 -7,10C-11.18,10 -14.87,13.46 -18,16Z" style="fill-rule:nonzero;"/>
    </g>
    <g transform="matrix(1,0,0,1,294.875,169.562)">
        <path d="M0,0C8.24,0.28 16.61,4.8 22.43,10.44C28.14,17.18 29.69,23.32 29.4,32.07C29.12,34.44 29.12,34.44 28.12,35.44C20.39,36.22 14.11,35.31 7.77,30.74C0.19,24.45 -3.03,17.98 -4.88,8.44C-5.12,5.06 -5.12,5.06 -4.88,2.44C-2.88,0.44 -2.88,0.44 0,0ZM5.12,10.44C5.6,15.46 6.9,18.54 10.12,22.44C13.74,25.16 16.5,26.44 21.12,26.44C19.8,20.83 18.37,16.7 13.41,13.24C10.5,11.49 8.56,10.44 5.12,10.44Z" style="fill-rule:nonzero;"/>
    </g>
    <g transform="matrix(1,0,0,1,424,173)">
        <path d="M0,0C-0.32,8.33 -3.44,15.9 -8.93,22.22C-17.53,30.12 -24.61,30.43 -36,30C-38.42,25.04 -37.7,22.48 -35.98,17.43C-32.79,9.51 -27.07,4.24 -19.44,0.69C-13.2,-1.86 -5.91,-3.94 0,0ZM-23,12C-25.97,15 -28,17.64 -28,22C-21.97,21.87 -19.09,19.96 -14.73,15.85C-12.24,13.19 -10,10.75 -10,7C-14.94,7 -18.9,9.38 -23,12Z" style="fill-rule:nonzero;"/>
    </g>
    <g transform="matrix(1,0,0,1,286,187)">
        <path d="M0,0C10.55,9.15 10.55,9.15 11.31,15.69C11,18 11,18 9,20C2.12,22.56 -8.11,22.08 -15.13,20.13C-20.7,17.54 -24.5,14 -28,9C-28.62,8.15 -29.24,7.31 -29.88,6.44C-31.31,3.33 -31.59,1.38 -31,-2C-22.28,-9.43 -8.4,-6.25 0,0ZM-21,3C-18.9,7.4 -16.83,10.15 -12.31,12.25C-8.15,13.19 -4.25,13.17 0,13C-1.34,9.87 -2.63,8.22 -5.44,6.31C-6.33,5.69 -6.33,5.69 -7.25,5.05C-10.43,3.14 -13.07,2.89 -16.69,2.94C-17.5,2.95 -18.3,2.96 -19.14,2.96C-19.75,2.98 -20.37,2.99 -21,3Z" style="fill-rule:nonzero;"/>
    </g>
    <g transform="matrix(1,0,0,1,459.945,184.207)">
        <path d="M0,0C1.05,1.79 1.05,1.79 0.92,4.67C-1.13,12.1 -5.68,17.56 -12.32,21.42C-19.88,24.79 -27.84,24.84 -35.95,23.79C-39.45,22.26 -39.45,22.26 -41.95,20.79C-41.13,12.97 -36.57,7.91 -30.73,2.89C-22.05,-3.34 -9.7,-6.02 0,0ZM-29.45,13.61C-29.94,14.33 -30.44,15.05 -30.95,15.79C-24.03,16.3 -18.7,15.93 -12.95,11.79C-10.18,9.2 -10.18,9.2 -8.95,5.79C-17.98,4.96 -23.38,6.79 -29.45,13.61Z" style="fill-rule:nonzero;"/>
    </g>
    <g transform="matrix(1,0,0,1,339.867,193.164)">
        <path d="M0,0C2.9,1.14 4.25,2.85 6.26,5.21C6.94,6 7.62,6.79 8.33,7.61C10.13,9.84 10.13,9.84 12.13,12.84C16.97,10.95 19.09,7.13 22.04,3.05C24.13,0.84 24.13,0.84 26.66,-0.15C29.81,-0.17 30.59,0.53 32.82,2.71C33.83,3.68 33.83,3.68 34.87,4.66C35.99,5.74 35.99,5.74 37.13,6.84C39.8,9.13 42.46,11.43 45.13,13.72C47.27,15.98 47.82,16.81 48.13,19.84C47.2,22.09 47.2,22.09 45.7,24.55C45.16,25.46 44.61,26.37 44.05,27.3C43.46,28.26 42.87,29.22 42.26,30.21C41.67,31.19 41.07,32.17 40.46,33.18C27.57,54.4 27.57,54.4 25.13,56.84C21.08,57.28 17.02,57.35 12.95,57.46C11.81,57.53 10.67,57.6 9.5,57.68C1.32,57.86 1.32,57.86 -1.73,55.24C-3.33,52.85 -4.59,50.41 -5.87,47.84C-7.15,45.77 -8.45,43.71 -9.77,41.66C-11.12,39.47 -12.46,37.28 -13.8,35.09C-14.5,33.98 -15.2,32.87 -15.92,31.72C-16.57,30.65 -17.22,29.58 -17.89,28.48C-18.49,27.51 -19.09,26.55 -19.7,25.56C-21.06,22.4 -20.99,21.04 -19.87,17.84C-18.05,15.66 -18.05,15.66 -15.74,13.52C-12.01,9.97 -8.59,6.31 -5.28,2.37C-3.54,0.48 -2.6,-0.23 0,0ZM-4.07,12.85C-4.89,13.73 -5.71,14.61 -6.55,15.52C-7.38,16.39 -8.21,17.26 -9.07,18.16C-11.13,20.63 -11.13,20.63 -10.66,23.19C-9.79,26.11 -8.59,28.28 -6.96,30.85C-6.38,31.77 -5.8,32.69 -5.21,33.64C-4.6,34.59 -3.99,35.54 -3.37,36.52C-2.17,38.42 -0.97,40.32 0.23,42.22C1.03,43.48 1.03,43.48 1.84,44.76C3.13,46.84 3.13,46.84 4.13,48.84C9.87,50.27 15.58,51.39 21.13,48.84C26.73,43.12 30.27,35.63 33.78,28.51C35.13,25.84 35.13,25.84 36.84,23.12C38.43,20.94 38.43,20.94 37.55,18.73C36.03,16.7 34.47,15.19 32.51,13.59C31.88,13.07 31.24,12.54 30.59,12.01C30.11,11.62 29.63,11.23 29.13,10.84C23.96,12.82 21.11,17.36 17.67,21.5C15.13,23.84 15.13,23.84 12.64,24.58C8.78,23.44 7.13,20.51 4.95,17.34C3.38,15.12 1.79,12.98 0.13,10.84C-2.12,10.61 -2.12,10.61 -4.07,12.85Z" style="fill-rule:nonzero;"/>
    </g>
    <g transform="matrix(1,0,0,1,428.562,211.688)">
        <path d="M0,0C1.79,1.11 1.79,1.11 3.44,2.31C4.03,2.71 4.63,3.11 5.25,3.52C7.79,5.37 9.31,6.57 9.84,9.75C9.31,13.13 8.21,13.91 5.5,15.94C-1.1,20.69 -8.31,23.61 -16.56,22.31C-23.71,20.54 -30.07,18.31 -35.56,13.31C-36.75,10.75 -36.75,10.75 -36.56,8.31C-29.85,-1.91 -10.53,-5.08 0,0ZM-24.56,9.31C-21.87,12.79 -18.78,13.48 -14.56,14.31C-9.57,14.32 -5.65,13.25 -1.56,10.31C-3.95,7.82 -5.37,6.42 -8.92,6.11C-14.98,6.01 -19.2,6.45 -24.56,9.31Z" style="fill-rule:nonzero;"/>
    </g>
    <g transform="matrix(1,0,0,1,310.418,217.582)">
        <path d="M0,0C5.4,4.38 5.4,4.38 6.03,7.92C5.28,12.09 2.58,13.47 -0.73,15.83C-8.27,20.29 -15.11,21.02 -23.62,19.22C-29.61,17.5 -34.91,14.79 -39.42,10.42C-40.05,8.29 -40.05,8.29 -40.42,6.42C-29.43,-4.18 -13.68,-8.95 0,0ZM-28.42,7.42C-22.75,11.92 -17.46,12.01 -10.42,11.42C-7.29,10.27 -7.29,10.27 -5.42,8.42L-5.42,6.42C-12.08,2.34 -22.07,3.07 -28.42,7.42Z" style="fill-rule:nonzero;"/>
    </g>
    <g transform="matrix(1,0,0,1,341,255)">
        <path d="M0,0L22,0C22.33,0.99 22.66,1.98 23,3C21.43,5.36 19.85,7.5 18.06,9.69C17.58,10.29 17.1,10.9 16.6,11.53C15.41,13.02 14.21,14.51 13,16C9.48,15.73 8.23,15.25 5.76,12.64C4.73,11.18 4.73,11.18 3.69,9.69C2.99,8.72 2.29,7.76 1.57,6.76C0,4 0,4 0,0ZM8,5C9.32,6.32 10.64,7.64 12,9C12.66,7.68 13.32,6.36 14,5L8,5Z" style="fill-rule:nonzero;"/>
    </g>
    <g transform="matrix(1,0,0,1,296,332)">
        <path d="M0,0L10,0C10.99,5.61 11.98,11.22 13,17C14.63,10.51 14.63,10.51 16.12,4C16.41,2.68 16.7,1.36 17,0L26,0C24.08,9.41 22.12,18.8 19.81,28.12C19.56,29.14 19.56,29.14 19.31,30.19C18.12,34.88 18.12,34.88 17,36C15.48,36.07 13.96,36.08 12.44,36.06C11.61,36.05 10.78,36.04 9.93,36.04C9.3,36.02 8.66,36.01 8,36C6.86,31.2 5.72,26.39 4.58,21.58C4.19,19.95 3.81,18.31 3.42,16.68C2.86,14.33 2.3,11.98 1.75,9.63C1.49,8.53 1.49,8.53 1.22,7.41C0,2.23 0,2.23 0,0Z" style="fill-rule:nonzero;"/>
    </g>
    <g transform="matrix(1,0,0,1,327,332)">
        <rect x="0" y="0" width="10" height="36" style="fill-rule:nonzero;"/>
    </g>
    <g transform="matrix(1,0,0,1,344,332)">
        <path d="M0,0C14,0 14,0 19,2C23.65,7.04 24.2,11.1 24.25,17.75C24.27,18.44 24.29,19.13 24.31,19.84C24.35,24.84 23.58,28.6 21,33C15,36 15,36 0,36L0,0ZM9,8L9,28L14,28L14,9C12.35,8.67 10.7,8.34 9,8Z" style="fill-rule:nonzero;"/>
    </g>
    <g transform="matrix(1,0,0,1,380,332)">
        <path d="M0,0L11,0C11.79,3.75 12.59,7.5 13.38,11.25C13.6,12.29 13.82,13.34 14.05,14.41C15.55,21.58 16.85,28.77 18,36L9,36C8.67,34.35 8.34,32.7 8,31L2,31C1.67,32.65 1.34,34.3 1,36L-7,36C-6.31,28.57 -4.99,21.37 -3.5,14.06C-3.27,12.93 -3.05,11.79 -2.82,10.62C-1.13,2.26 -1.13,2.26 0,0ZM5,14C4.34,17.3 3.68,20.6 3,24L7,24C6.67,20.7 6.34,17.4 6,14L5,14Z" style="fill-rule:nonzero;"/>
    </g>
    <g transform="matrix(1,0,0,1,216,385)">
        <path d="M0,0L12,0C15.21,12.19 15.21,12.19 15,17L17,17C17.05,16.36 17.1,15.72 17.15,15.06C17.6,9.79 18.36,5.03 20,0L32,0L32,36L23,36C22.67,31.05 22.34,26.1 22,21C21.53,23.29 21.05,25.58 20.56,27.94C19.12,34.88 19.12,34.88 18,36C16.33,36.04 14.67,36.04 13,36C11.06,30.75 10.04,25.49 9,20C8.67,25.28 8.34,30.56 8,36L0,36L0,0Z" style="fill-rule:nonzero;"/>
    </g>
    <g transform="matrix(1,0,0,1,276.438,387.438)">
        <path d="M0,0C3.99,3.99 2.83,10.7 2.88,15.94C2.9,16.98 2.93,18.02 2.96,19.09C3.03,26.79 3.03,26.79 0.68,30.7C-3.1,34.02 -5.98,34.77 -10.94,34.5C-15.47,33.88 -17.59,32.21 -20.44,28.56C-22.3,24.84 -21.67,20.4 -21.69,16.31C-21.71,15.37 -21.73,14.43 -21.75,13.46C-21.78,8.11 -21.61,4.1 -18.44,-0.44C-12.52,-4.85 -6.04,-3.56 0,0ZM-10.44,4.56C-11.65,5.56 -11.65,5.56 -11.55,7.51C-11.55,8.34 -11.54,9.18 -11.54,10.04C-11.53,10.93 -11.53,11.83 -11.53,12.76C-11.52,13.71 -11.51,14.65 -11.5,15.62C-11.5,16.57 -11.49,17.52 -11.49,18.5C-11.47,20.86 -11.46,23.21 -11.44,25.56C-10.12,25.89 -8.8,26.22 -7.44,26.56C-6.47,22.48 -6.27,18.63 -6.25,14.44C-6.24,13.22 -6.22,12 -6.21,10.74C-6.19,7.41 -6.19,7.41 -8.44,4.56L-10.44,4.56Z" style="fill-rule:nonzero;"/>
    </g>
    <g transform="matrix(1,0,0,1,304,385)">
        <path d="M0,0C3.62,3.24 4.9,4.95 5.38,9.81C5,13 5,13 4,14C2,14.04 -0,14.04 -2,14C-2.66,12.02 -3.32,10.04 -4,8C-5.32,8.33 -6.64,8.66 -8,9L-8,29C-6.68,28.67 -5.36,28.34 -4,28C-3.67,26.35 -3.34,24.7 -3,23L5,23C5.6,30.09 5.6,30.09 3.06,33.94C-0.94,36.63 -4.2,37.3 -9,37C-13.29,35.49 -15.64,33.86 -18,30C-18.64,26.04 -18.51,22.06 -18.5,18.06C-18.53,16.98 -18.56,15.89 -18.59,14.78C-18.61,6.82 -18.61,6.82 -15.65,2.83C-10.42,-0.78 -6.19,-1.8 0,0Z" style="fill-rule:nonzero;"/>
    </g>
    <g transform="matrix(1,0,0,1,315,385)">
        <path d="M0,0L22,0L22,8L16,8C16.01,9.22 16.01,9.22 16.02,10.46C16.04,14.12 16.05,17.78 16.06,21.44C16.07,22.72 16.08,24 16.09,25.31C16.09,27.14 16.09,27.14 16.1,29C16.11,30.68 16.11,30.68 16.11,32.41C16,35 16,35 15,36C13.19,36.13 13.19,36.13 11,36.12C10.28,36.13 9.56,36.13 8.81,36.13C7,36 7,36 6,35C5.91,33 5.89,31 5.9,29C5.91,27.78 5.91,26.57 5.91,25.31C5.92,24.04 5.93,22.76 5.94,21.44C5.94,20.15 5.95,18.87 5.95,17.55C5.96,14.37 5.98,11.18 6,8L0,8L0,0Z" style="fill-rule:nonzero;"/>
    </g>
    <g transform="matrix(1,0,0,1,348.219,384.867)">
        <path d="M0,0L2.57,-0C3.91,0 3.91,0 5.28,0.01C6.17,0 7.07,0 7.99,-0L12.94,0C14.78,0.13 14.78,0.13 15.78,1.13C15.82,3.47 15.82,5.8 15.78,8.13L4.78,8.13C5.11,10.11 5.44,12.09 5.78,14.13C6.59,14.11 7.39,14.09 8.22,14.07C10.78,14.13 10.78,14.13 11.78,15.13C11.82,17.13 11.82,19.13 11.78,21.13L4.78,21.13L4.78,28.13C5.49,28.12 6.2,28.11 6.93,28.1C7.85,28.09 8.77,28.08 9.72,28.07C10.64,28.06 11.55,28.05 12.5,28.04C14.78,28.13 14.78,28.13 15.78,29.13C15.91,32.13 15.91,32.13 15.78,35.13C14.23,36.69 12.72,36.26 10.56,36.27L7.99,36.27C6.65,36.26 6.65,36.26 5.28,36.26C4.39,36.26 3.49,36.27 2.57,36.27L0,36.27C-0.78,36.26 -1.57,36.26 -2.38,36.26C-4.22,36.13 -4.22,36.13 -5.22,35.13C-5.32,32.62 -5.36,30.14 -5.35,27.63L-5.35,25.36C-5.36,23.77 -5.35,22.18 -5.35,20.59C-5.34,18.14 -5.35,15.7 -5.36,13.26C-5.35,11.72 -5.35,10.17 -5.35,8.63C-5.35,7.9 -5.36,7.16 -5.36,6.4C-5.33,0.01 -5.33,0.01 0,0Z" style="fill-rule:nonzero;"/>
    </g>
    <g transform="matrix(1,0,0,1,370,385)">
        <path d="M0,0L21,0C20.26,4.46 19.67,7.22 17.93,11.18C17.33,12.57 17.33,12.57 16.71,13.99C16.29,14.94 15.87,15.89 15.44,16.88C15.01,17.85 14.59,18.82 14.15,19.83C13.11,22.22 12.05,24.61 11,27C14.3,27.33 17.6,27.66 21,28L21,36L-1,36C-0.23,31.37 0.39,28.67 2.29,24.6C2.73,23.63 3.18,22.66 3.64,21.65C4.11,20.65 4.58,19.65 5.06,18.62C5.53,17.6 6.01,16.58 6.49,15.53C7.66,13.02 8.83,10.51 10,8L0,8L0,0Z" style="fill-rule:nonzero;"/>
    </g>
    <g transform="matrix(1,0,0,1,398,385)">
        <path d="M0,0L9,0C9.33,9.24 9.66,18.48 10,28C10.99,28.33 11.98,28.66 13,29C13.33,19.43 13.66,9.86 14,0L22,0C24.69,2.69 23.24,10.57 23.25,14.19C23.27,15.42 23.29,16.65 23.31,17.92C23.32,19.12 23.32,20.31 23.33,21.54C23.34,22.64 23.35,23.73 23.36,24.86C22.94,28.5 21.89,30.87 20,34C15.73,37.15 12.31,37.25 7.25,36.81C3.87,35.59 2.27,33.76 0,31C-0.57,27.59 -0.57,27.59 -0.49,23.73C-0.48,23.05 -0.47,22.37 -0.47,21.67C-0.44,19.51 -0.38,17.35 -0.31,15.19C-0.29,13.72 -0.26,12.25 -0.24,10.78C-0.19,7.18 -0.1,3.59 0,0Z" style="fill-rule:nonzero;"/>
    </g>
    <g transform="matrix(1,0,0,1,428,385)">
        <path d="M0,0L12,0C13.32,5.28 14.64,10.56 16,16C17.32,10.72 18.64,5.44 20,0L32,0L32,36L24,36C22.12,34.12 22.61,30.96 22.44,28.44C22.31,26.64 22.31,26.64 22.18,24.81C22.12,23.88 22.06,22.95 22,22C21.8,22.93 21.59,23.85 21.38,24.81C21.11,26.01 20.84,27.2 20.56,28.44C20.3,29.63 20.03,30.83 19.75,32.06C19,35 19,35 18,36C16.33,36.04 14.67,36.04 13,36C11.06,30.75 10.04,25.49 9,20C8.67,25.28 8.34,30.56 8,36L0,36L0,0Z" style="fill-rule:nonzero;"/>
    </g>
    <g transform="matrix(1,0,0,1,474,385)">
        <path d="M0,0C2.38,-0.29 2.38,-0.29 5.12,-0.19C6.04,-0.16 6.95,-0.13 7.88,-0.11C8.58,-0.07 9.28,-0.04 10,0C10.84,3.84 11.68,7.68 12.51,11.52C12.93,13.46 13.35,15.4 13.78,17.34C15.12,23.55 16.37,29.68 17,36L8,36C7.67,34.35 7.34,32.7 7,31L1,31C0.67,32.65 0.34,34.3 0,36L-8,36C-7.24,28.98 -5.94,22.11 -4.56,15.19C-4.24,13.49 -4.24,13.49 -3.9,11.76C-3.69,10.68 -3.48,9.6 -3.25,8.48C-3.06,7.5 -2.87,6.52 -2.67,5.51C-2,3 -2,3 0,0ZM4,14C3.34,17.3 2.68,20.6 2,24C3.32,24.33 4.64,24.66 6,25C5.67,21.37 5.34,17.74 5,14L4,14Z" style="fill-rule:nonzero;"/>
    </g>
</svg>
