
<svg width="18" height="18" viewBox="0 0 18 18" fill="none" xmlns="http://www.w3.org/2000/svg">
<path d="M17.6402 9.20455C17.6402 8.56818 17.5818 7.95455 17.4727 7.36364H9V10.8409H13.8409C13.6364 11.9773 12.9545 12.9545 11.9773 13.6364V15.8182H14.4818C16.4182 14.0455 17.6402 11.8636 17.6402 9.20455Z" fill="#4285F4"/>
<path d="M9 18C11.4318 18 13.4773 17.1818 14.4818 15.8182L11.9773 13.6364C11.1591 14.1818 10.1591 14.5455 9 14.5455C6.95455 14.5455 5.27273 13.1591 4.72727 11.3182H2.12727V13.5C3.15909 16.0227 5.86364 18 9 18Z" fill="#34A853"/>
<path d="M4.72727 11.3182C4.52273 10.7273 4.41818 10.1136 4.41818 9.47727C4.41818 8.84091 4.52273 8.22727 4.72727 7.63636V5.45455H2.12727C1.44545 6.75 1 8.06818 1 9.47727C1 10.8864 1.44545 12.2045 2.12727 13.5L4.72727 11.3182Z" fill="#FBBC05"/>
<path d="M9 4.40909C10.2273 4.40909 11.25 4.85455 12.0682 5.625L14.5455 3.14773C13.4773 2.15909 11.4318 1.45455 9 1.45455C5.86364 1.45455 3.15909 3.43182 2.12727 5.95455L4.72727 8.13636C5.27273 6.29545 6.95455 4.40909 9 4.40909Z" fill="#EA4335"/>
</svg>
