<svg xmlns="http://www.w3.org/2000/svg" version="1.1" viewBox="0 0 1807.9 346.6">
  <defs>
    <style>
      .cls-1 {
        fill: #FFFFFF;
      }
    </style>
  </defs>
  <g>
    <g id="Layer_1">
      <g>
        <path class="cls-1" d="M257.8,262.7V84c0-51.3,30.3-84,84.7-84s84.7,31.3,84.7,84v178.7c0,53.6-27.7,84-84.7,84s-84.7-30.3-84.7-84ZM342.5,287.8c7.5,0,10.8-5.4,10.8-12.9V71.7c0-7.1-3.5-12.9-10.8-12.9s-10.8,5.4-10.8,12.9v203.2c0,7.5,3.3,12.9,10.8,12.9Z"/>
        <path class="cls-1" d="M447.4,269.5V80c0-48.9,29.9-80,83.7-80s82.5,29.6,82.5,80v48h-71.7v-56.4c0-7.1-3.5-12.7-10.8-12.7s-10.8,5.4-10.8,12.7v203.9c0,7.1,3.3,12.5,10.8,12.5s10.8-5.4,10.8-12.5v-65.4h71.7v59.5c0,46.6-28.9,77.1-83.7,77.1s-82.5-29.6-82.5-77.1Z"/>
        <path class="cls-1" d="M664.5,65.8h-43.5V4.7h157.6v61.1h-43.5v276.1h-70.5V65.8Z"/>
        <path class="cls-1" d="M795.6,4.7h135.9v58.8h-65.4v73.4h54.8v58.8h-54.8v87.5h65.4v58.8h-135.9V4.7Z"/>
        <path class="cls-1" d="M948.5,277.7l73.1-213.8h-72.7V4.7h141.6v65.4l-72.4,212.6h73.8v59.3h-143.5v-64.2Z"/>
        <path class="cls-1" d="M1108.5,272.8V4.7h71v268.8c0,7.5,4,13.2,11.8,13.2s11.8-5.6,11.8-13.2V4.7h71v268.1c0,45.6-28,73.8-82.8,73.8s-82.8-28.2-82.8-73.8Z"/>
        <path class="cls-1" d="M1582.7,4.7h109.1l40,337.2h-73.6l-6.1-74.3h-27.8l-4.9,74.3h-72L1582.7,4.7ZM1648.3,208.8l-11.1-144.4h-.5l-9.2,144.4h20.7Z"/>
        <path class="cls-1" d="M1732.3,91.1v-48.1c0-21.7,13.6-38.4,37.8-38.4s37.8,16.6,37.8,38.4v48.1c0,21.7-13.6,38.5-37.8,38.5s-37.8-16.8-37.8-38.5ZM1770.1,121.7c18.8,0,29.9-12.6,29.9-31.4v-46.4c0-18.8-11.1-31.3-29.9-31.3s-29.8,13-29.8,31.3v46.4c0,18.3,10.9,31.4,29.8,31.4ZM1751.2,26.9h20.2c13,0,19.1,5.4,19.1,19.2s-4.6,17.2-11.2,19c8.9,1.2,11.1,4.3,11.1,11.4v27.8h-16.8v-27.7c0-3.6-1.2-5-5.8-5v32.7h-16.6V26.9ZM1768.5,58.6c3.9,0,5.3-2.4,5.3-8.6v-2.6c0-5.1-1.1-7.5-5.3-7.5h-.7v18.7h.7Z"/>
        <polygon class="cls-1" points="61.1 4.1 0 4.1 0 65.3 0 341.4 61.1 341.4 61.1 65.3 87.2 65.3 87.2 341.9 148.4 341.9 148.4 65.3 174.5 65.3 174.5 341.9 235.6 341.9 235.6 65.3 235.6 4.7 235.6 4.1 61.1 4.1"/>
        <polygon class="cls-1" points="1358.5 4.1 1297.4 4.1 1297.4 65.3 1297.4 341.4 1358.5 341.4 1358.5 65.3 1384.6 65.3 1384.6 341.9 1445.8 341.9 1445.8 65.3 1471.9 65.3 1471.9 341.9 1533 341.9 1533 65.3 1533 4.7 1533 4.1 1358.5 4.1"/>
      </g>
    </g>
  </g>
</svg>