<?xml version="1.0" encoding="UTF-8"?>
<svg id="uuid-e716de43-b23b-47be-a874-32763cf073db" data-name="Layer 2" xmlns="http://www.w3.org/2000/svg" viewBox="0 0 836.7 259.2">
  <g>
    <g>
      <g>
        <path d="M140.43,141.21v-27.28c0-7.83,4.63-12.82,12.92-12.82s12.92,4.77,12.92,12.82v27.28c0,8.19-4.24,12.82-12.92,12.82s-12.92-4.63-12.92-12.82ZM153.35,145.05c1.15,0,1.65-.83,1.65-1.97v-31.02c0-1.08-.54-1.97-1.65-1.97s-1.65.83-1.65,1.97v31.02c0,1.15.5,1.97,1.65,1.97Z" style="fill: #fff;"/>
        <path d="M169.37,142.25v-28.94c0-7.47,4.56-12.21,12.78-12.21s12.6,4.52,12.6,12.21v7.32h-10.95v-8.62c0-1.08-.54-1.94-1.65-1.94s-1.65.83-1.65,1.94v31.13c0,1.08.5,1.9,1.65,1.9,1.08,0,1.65-.83,1.65-1.9v-9.98h10.95v9.08c0,7.11-4.42,11.78-12.78,11.78s-12.6-4.52-12.6-11.78Z" style="fill: #fff;"/>
        <path d="M202.52,111.16h-6.64v-9.33h24.05v9.33h-6.64v42.15h-10.77v-42.15Z" style="fill: #fff;"/>
        <path d="M222.53,101.83h20.75v8.98h-9.98v11.2h8.37v8.98h-8.37v13.36h9.98v8.98h-20.75v-51.48Z" style="fill: #fff;"/>
        <path d="M245.87,143.51l11.17-32.63h-11.09v-9.05h21.61v9.98l-11.06,32.45h11.27v9.05h-21.9v-9.8Z" style="fill: #fff;"/>
        <path d="M270.29,142.75v-40.93h10.84v41.03c0,1.15.61,2.01,1.8,2.01s1.8-.86,1.8-2.01v-41.03h10.84v40.93c0,6.96-4.27,11.27-12.64,11.27s-12.64-4.31-12.64-11.27Z" style="fill: #fff;"/>
        <path d="M342.69,101.83h16.66l6.1,51.48h-11.24l-.93-11.34h-4.24l-.75,11.34h-10.99l5.39-51.48ZM352.71,132.99l-1.69-22.04h-.07l-1.4,22.04h3.16Z" style="fill: #fff;"/>
        <path d="M365.53,115.02v-7.34c0-3.32,2.07-5.86,5.77-5.86s5.77,2.54,5.77,5.86v7.34c0,3.32-2.07,5.88-5.77,5.88s-5.77-2.56-5.77-5.88ZM371.31,119.69c2.88,0,4.57-1.92,4.57-4.8v-7.08c0-2.88-1.69-4.78-4.57-4.78s-4.55,1.99-4.55,4.78v7.08c0,2.79,1.67,4.8,4.55,4.8ZM368.41,105.21h3.09c1.99,0,2.92.82,2.92,2.94,0,1.86-.7,2.62-1.71,2.9,1.35.19,1.69.66,1.69,1.73v4.25h-2.56v-4.23c0-.55-.19-.76-.89-.76v4.99h-2.54v-11.82ZM371.05,110.05c.59,0,.8-.36.8-1.31v-.4c0-.78-.17-1.14-.8-1.14h-.11v2.85h.11Z" style="fill: #fff;"/>
        <polygon points="101.07 101.74 101.07 153.22 110.4 153.22 110.4 111.07 114.39 111.07 114.39 153.31 123.72 153.31 123.72 111.07 127.71 111.07 127.71 153.31 137.04 153.31 137.04 101.83 137.04 101.74 101.07 101.74" style="fill: #fff;"/>
        <polygon points="299.13 101.74 299.13 153.22 308.47 153.22 308.47 111.07 312.45 111.07 312.45 153.31 321.79 153.31 321.79 111.07 325.77 111.07 325.77 153.31 335.11 153.31 335.11 101.83 335.11 101.74 299.13 101.74" style="fill: #fff;"/>
      </g>
      <rect x="413.01" y="101.36" width="2.7" height="51.95" style="fill: #fff;"/>
    </g>
    <g>
      <g>
        <path d="M592.6,153.31v-13.04l-1.03,5.29-1.68,7.75h-3.42l-1.56-7.75-.93-5.29v13.04h-4.98v-20.73h7.31l1.68,8.12.53,3.11.56-3.11,1.62-8.12h7.28v20.73h-5.38Z" style="fill: #fff;"/>
        <path d="M608.54,153.83c-3.95,0-6.97-2.43-6.97-6.01v-9.77c0-3.58,3.02-5.98,6.97-5.98s6.94,2.4,6.94,5.98v9.77c0,3.58-3.02,6.01-6.94,6.01ZM609.79,137.74c0-.69-.59-1.09-1.25-1.09s-1.28.4-1.28,1.09v10.4c0,.68.62,1.09,1.28,1.09s1.25-.4,1.25-1.09v-10.4Z" style="fill: #fff;"/>
        <path d="M626.13,153.83c-4.17,0-7.22-2.55-7.22-6.38v-9.03c0-3.83,3.05-6.38,7.22-6.38,3.95,0,6.47,2.43,6.47,6.01v2.33h-4.95v-2.37c0-.81-.53-1.37-1.53-1.37s-1.53.56-1.53,1.37v9.84c0,.81.53,1.37,1.53,1.37s1.53-.56,1.53-1.37v-2.37h4.95v2.33c0,3.58-2.52,6.01-6.47,6.01Z" style="fill: #fff;"/>
        <path d="M644.72,137.18v16.12h-5.57v-16.12h-3.89v-4.61h13.38v4.61h-3.92Z" style="fill: #fff;"/>
        <path d="M651.6,153.31v-20.73h11.86v4.51h-6.29v3.64h4.08v3.92h-4.08v3.86h6.29v4.79h-11.86Z" style="fill: #fff;"/>
        <path d="M672.71,148.6h6.23v4.7h-12.95v-1.09l6.63-15.22h-6.16v-4.42h12.76v1.09l-6.51,14.94Z" style="fill: #fff;"/>
        <path d="M689.11,153.83c-3.89,0-6.85-2.55-6.85-5.67v-15.6h5.63v15.56c0,.68.59,1.09,1.21,1.09.69,0,1.28-.4,1.28-1.09v-15.56h5.39v15.6c0,3.11-2.71,5.67-6.66,5.67Z" style="fill: #fff;"/>
        <path d="M713.08,153.31v-13.04l-1.03,5.29-1.68,7.75h-3.42l-1.56-7.75-.93-5.29v13.04h-4.98v-20.73h7.31l1.68,8.12.53,3.11.56-3.11,1.62-8.12h7.28v20.73h-5.38Z" style="fill: #fff;"/>
        <path d="M730.33,153.31l-.37-2.9h-3.3l-.47,2.9h-5.07l4.2-20.73h6.47l4.11,20.73h-5.57ZM728.5,139.58l-1.18,7h2.12l-.93-7Z" style="fill: #fff;"/>
      </g>
      <g>
        <path d="M588.06,122.62h-5.32l-4.83-20.73h5.67l2.02,12.11,2.09-12.11h5.35l-4.98,20.73Z" style="fill: #fff;"/>
        <path d="M595.62,122.62v-20.73h5.57v20.73h-5.57Z" style="fill: #fff;"/>
        <path d="M611.94,122.62h-7v-20.73h7c4.17,0,6.79,2.77,6.79,6.35v8.53c0,3.58-2.61,5.85-6.79,5.85ZM613.15,108.11c0-1.15-.5-1.81-1.62-1.81h-1.03v11.89h1.03c1.12,0,1.62-.65,1.62-1.81v-8.28Z" style="fill: #fff;"/>
        <path d="M630.43,122.62l-.37-2.9h-3.3l-.47,2.9h-5.07l4.2-20.73h6.47l4.11,20.73h-5.57ZM628.59,108.89l-1.18,7h2.12l-.93-7Z" style="fill: #fff;"/>
      </g>
    </g>
  </g>
  <g>
    <path d="M512.35,183.37h-12.04c-26.46,0-47.98-21.53-47.98-47.99v-10.93c0-26.46,21.53-47.99,47.98-47.99h12.04c26.46,0,47.98,21.53,47.98,47.99v10.93c0,26.46-21.53,47.99-47.98,47.99ZM500.31,82.19c-23.31,0-42.27,18.96-42.27,42.27v10.93c0,23.31,18.96,42.27,42.27,42.27h12.04c23.31,0,42.27-18.96,42.27-42.27v-10.93c0-23.31-18.96-42.27-42.27-42.27h-12.04Z" style="fill: #fff;"/>
    <g>
      <path d="M506.25,108.53c-.46,0-.92-.17-1.27-.52-2.58-2.51-3.93-5.39-4.02-8.55-.16-5.58,3.78-9.94,3.95-10.12.36-.4.88-.61,1.42-.59.54.02,1.04.28,1.36.71,2.53,3.3,3.79,6.62,3.74,9.87-.09,5.45-3.86,8.64-4.02,8.78-.34.28-.75.42-1.16.42ZM506.2,93.77c-.81,1.39-1.67,3.4-1.61,5.59.05,1.62.6,3.16,1.66,4.6.72-1.03,1.5-2.63,1.54-4.69.03-1.76-.5-3.61-1.59-5.5Z" style="fill: #fff;"/>
      <path d="M506.25,138.87c-.46,0-.92-.17-1.27-.52-2.58-2.51-3.93-5.39-4.02-8.55-.16-5.58,3.78-9.94,3.95-10.12.36-.4.88-.61,1.42-.59.54.02,1.04.28,1.36.71,2.53,3.3,3.79,6.62,3.74,9.87-.09,5.45-3.86,8.64-4.02,8.78-.34.28-.75.42-1.16.42ZM506.2,124.11c-.81,1.39-1.67,3.4-1.61,5.59.05,1.62.6,3.16,1.66,4.6.72-1.03,1.5-2.63,1.54-4.69.03-1.76-.5-3.61-1.59-5.5Z" style="fill: #fff;"/>
      <path d="M498.42,139.47c-.14,0-.28-.02-.42-.06-3.38-.98-5.87-2.84-7.39-5.52-2.7-4.75-1.3-10.33-1.24-10.56.11-.43.41-.8.82-.99.4-.19.87-.2,1.28-.01,3.72,1.69,6.34,3.99,7.79,6.82,2.42,4.73.64,9.2.56,9.38-.24.58-.8.94-1.4.94ZM492.03,126.03c-.12,1.69-.02,4.19,1.22,6.36.9,1.57,2.28,2.77,4.13,3.58.21-1.3.26-3.33-.82-5.44-.89-1.74-2.41-3.25-4.53-4.5Z" style="fill: #fff;"/>
      <path d="M492.06,146.74h-.02c-3.6-.04-6.57-1.19-8.81-3.42-3.96-3.94-4.11-9.81-4.11-10.06,0-.54.22-1.05.62-1.4.41-.35.95-.51,1.48-.43,4.11.65,7.31,2.18,9.51,4.57,3.7,4.01,3.16,8.92,3.14,9.13-.11.92-.89,1.61-1.81,1.61ZM483.12,135.58c.37,1.57,1.13,3.61,2.69,5.16,1.15,1.14,2.62,1.88,4.37,2.19-.19-1.24-.72-2.94-2.12-4.46-1.19-1.3-2.85-2.27-4.94-2.89Z" style="fill: #fff;"/>
      <path d="M523.7,145.92c-.61,0-1.23-.04-1.87-.11-.92-.11-1.62-.9-1.61-1.83,0-.21.11-5.15,4.29-8.65,2.49-2.09,5.86-3.2,10.02-3.31.53-.02,1.05.21,1.41.61.36.4.52.94.44,1.47-.04.25-.94,6.05-5.37,9.44-2.06,1.58-4.51,2.37-7.3,2.37ZM532.12,135.89c-2.15.35-3.92,1.1-5.27,2.23-1.58,1.32-2.32,2.94-2.67,4.14,1.78-.08,3.33-.62,4.62-1.61,1.74-1.33,2.76-3.26,3.33-4.77Z" style="fill: #fff;"/>
      <path d="M481.09,160.46c-5.41,0-9.6-3.77-9.78-3.93-.4-.36-.61-.88-.59-1.42s.28-1.04.71-1.37c3.29-2.54,6.62-3.82,9.86-3.76,5.45.08,8.65,3.84,8.79,4,.6.72.56,1.76-.09,2.43-2.51,2.59-5.38,3.95-8.54,4.04-.12,0-.23,0-.35,0ZM475.74,155.22c1.4.81,3.41,1.66,5.59,1.6,1.62-.05,3.16-.61,4.6-1.67-1.03-.71-2.63-1.5-4.69-1.53-1.77-.02-3.6.51-5.5,1.6ZM472.54,155.18h0,0Z" style="fill: #fff;"/>
      <path d="M532.99,158.87c-5.41,0-9.6-3.77-9.78-3.93-.4-.36-.61-.88-.59-1.42s.28-1.04.71-1.37c3.29-2.54,6.61-3.81,9.86-3.76,5.45.08,8.65,3.84,8.79,4,.6.72.56,1.76-.09,2.43-2.51,2.59-5.38,3.95-8.54,4.04-.12,0-.23,0-.35,0ZM527.64,153.63c1.4.81,3.4,1.67,5.59,1.6,1.62-.05,3.16-.61,4.6-1.67-1.03-.71-2.63-1.5-4.69-1.53-1.77-.02-3.61.51-5.5,1.6ZM524.44,153.59h0,0Z" style="fill: #fff;"/>
      <path d="M540.07,148.08c-2.8,0-4.95-.72-5.09-.77-.51-.17-.91-.56-1.11-1.07-.19-.5-.16-1.06.1-1.53,2.01-3.65,4.54-6.13,7.54-7.39,5.03-2.11,9.47.06,9.65.16.83.42,1.21,1.4.89,2.27-1.27,3.37-3.36,5.77-6.21,7.12-1.96.92-3.99,1.21-5.76,1.21ZM535.56,145.59h0,0ZM538.51,144.34c1.6.18,3.78.17,5.76-.77,1.47-.69,2.66-1.82,3.55-3.37-1.23-.24-3.01-.32-4.91.47-1.63.68-3.1,1.91-4.4,3.66Z" style="fill: #fff;"/>
      <path d="M476.06,148.08c-1.77,0-3.81-.29-5.76-1.21-2.86-1.35-4.95-3.74-6.21-7.12-.33-.87.06-1.85.89-2.27.19-.09,4.62-2.27,9.65-.16,2.99,1.26,5.53,3.74,7.54,7.39.26.47.3,1.03.1,1.53-.19.5-.6.89-1.11,1.07-.14.05-2.29.77-5.09.77ZM468.3,140.21c.89,1.54,2.08,2.67,3.55,3.37,1.98.94,4.16.95,5.76.77-1.3-1.75-2.78-2.98-4.4-3.66-1.9-.8-3.67-.72-4.91-.47Z" style="fill: #fff;"/>
      <path d="M538.49,130.9c-.43,0-.7-.02-.75-.02-.54-.04-1.03-.32-1.34-.75-.31-.44-.42-.99-.29-1.51,1.03-4.03,2.85-7.07,5.44-9.04,4.34-3.31,9.18-2.32,9.38-2.27.91.2,1.53,1.05,1.43,1.97-.38,3.58-1.8,6.43-4.23,8.45-3.44,2.87-7.9,3.18-9.65,3.18ZM537.88,129.06h0,0ZM548.39,120.77c-1.25.08-2.99.44-4.63,1.69-1.4,1.07-2.52,2.63-3.34,4.65,1.6-.22,3.7-.79,5.39-2.19,1.25-1.04,2.11-2.43,2.59-4.15Z" style="fill: #fff;"/>
      <path d="M476.15,131.62c-.08,0-.17,0-.25-.02-.25-.03-6.06-.88-9.5-5.28-1.95-2.49-2.74-5.57-2.35-9.15.1-.92.88-1.62,1.81-1.62h0c.21,0,5.15.05,8.69,4.2,2.11,2.47,3.26,5.83,3.41,9.99.02.54-.2,1.06-.6,1.42-.34.3-.77.47-1.22.47ZM467.63,119.48c.1,1.78.65,3.32,1.65,4.6,1.35,1.73,3.29,2.72,4.8,3.28-.37-2.15-1.14-3.91-2.28-5.25-1.34-1.56-2.96-2.29-4.17-2.63Z" style="fill: #fff;"/>
      <path d="M513.58,122.77c-.16,0-.32-.02-.48-.06-.52-.14-.95-.5-1.17-.99-1.75-3.78-2.24-7.29-1.48-10.45,1.28-5.3,5.66-7.58,5.85-7.68.83-.42,1.84-.15,2.35.63,1.97,3.02,2.65,6.12,2.05,9.23-1.07,5.48-5.88,8.86-6.08,9-.31.21-.67.32-1.04.32ZM516.52,107.88c-.93.85-2.04,2.23-2.53,4.23-.42,1.71-.3,3.63.34,5.72,1.1-1.18,2.38-2.95,2.8-5.1.31-1.59.11-3.22-.61-4.85Z" style="fill: #fff;"/>
      <path d="M500.19,122.78c-.37,0-.73-.11-1.04-.32-.2-.14-5.01-3.52-6.08-9-.61-3.1.08-6.21,2.05-9.23.51-.78,1.52-1.05,2.35-.63.19.09,4.57,2.38,5.85,7.68.76,3.16.27,6.67-1.48,10.45-.23.49-.66.85-1.17.99-.16.04-.32.06-.48.06ZM497.26,107.9c-.71,1.63-.92,3.26-.61,4.85.42,2.15,1.7,3.92,2.8,5.1.64-2.09.75-4,.34-5.72-.48-2-1.6-3.38-2.53-4.23Z" style="fill: #fff;"/>
      <path d="M513.83,137.97c-.89,0-1.65-.64-1.8-1.53-.03-.21-.79-5.09,2.72-9.26,2.09-2.49,5.22-4.17,9.29-5,.53-.11,1.07.02,1.49.36s.67.84.69,1.38c0,.25.12,6.12-3.66,10.23-2.14,2.33-5.05,3.61-8.65,3.81-.03,0-.07,0-.1,0ZM522.35,126.42c-2.06.72-3.67,1.76-4.81,3.11-1.33,1.58-1.78,3.29-1.91,4.55,1.74-.39,3.17-1.19,4.27-2.38,1.48-1.61,2.15-3.69,2.45-5.27Z" style="fill: #fff;"/>
      <path d="M523.69,109.74c-.67,0-1.31-.37-1.63-1.01-1.61-3.22-1.94-6.39-.98-9.4,1.69-5.32,6.85-8.14,7.07-8.25.47-.25,1.04-.29,1.54-.09.5.2.89.61,1.05,1.12,1.3,3.95,1.4,7.5.28,10.55-1.88,5.12-6.49,6.89-6.69,6.96-.21.08-.42.11-.64.11ZM527.91,95.69c-1.23,1.05-2.7,2.66-3.36,4.75-.49,1.55-.47,3.18.05,4.89,1.02-.74,2.29-1.99,2.99-3.92.61-1.66.71-3.57.31-5.72Z" style="fill: #fff;"/>
      <path d="M490.08,109.74c-.21,0-.43-.04-.64-.11-.2-.07-4.81-1.84-6.69-6.96-1.12-3.05-1.02-6.6.28-10.55.17-.51.55-.92,1.05-1.12.5-.2,1.06-.17,1.54.09.22.12,5.37,2.93,7.07,8.25.96,3.01.63,6.17-.98,9.4-.32.63-.96,1.01-1.63,1.01ZM485.86,95.69c-.4,2.15-.29,4.06.31,5.72.71,1.93,1.98,3.18,2.99,3.92.52-1.7.54-3.34.05-4.89-.66-2.09-2.13-3.7-3.36-4.75Z" style="fill: #fff;"/>
      <path d="M485.38,123.48c-.06,0-.11,0-.17,0-.21-.02-5.12-.52-8.27-4.98-1.88-2.65-2.71-6.1-2.48-10.26.03-.54.29-1.03.72-1.36.43-.32.98-.44,1.5-.32.24.06,5.95,1.43,8.98,6.12,1.71,2.66,2.22,5.8,1.51,9.33-.17.86-.93,1.46-1.78,1.46ZM478.11,110.96c.18,2.17.78,3.99,1.8,5.43,1.19,1.68,2.74,2.55,3.91,3,.06-1.78-.35-3.37-1.23-4.73-1.18-1.83-3.02-3.01-4.48-3.7Z" style="fill: #fff;"/>
      <path d="M530.19,123.53c-.85,0-1.6-.6-1.78-1.45-.73-3.53-.25-6.67,1.45-9.34,2.99-4.72,8.7-6.12,8.94-6.18.52-.13,1.07-.01,1.51.31.43.32.7.81.73,1.35.25,4.15-.56,7.61-2.42,10.27-3.12,4.47-8.03,5.01-8.24,5.03-.06,0-.12,0-.18,0ZM537.39,110.96c-1.45.7-3.29,1.88-4.46,3.73-.87,1.37-1.27,2.96-1.2,4.74,1.17-.45,2.72-1.34,3.9-3.03,1.01-1.45,1.6-3.27,1.76-5.45Z" style="fill: #fff;"/>
      <path d="M510.17,165.88h-8.71c-.64,0-1.23-.33-1.56-.88l-8.17-13.54c-.42-.7-.33-1.6.23-2.19l6.9-7.31c.36-.38.87-.59,1.41-.57.53.02,1.02.28,1.35.69l4.39,5.58,4.85-5.64c.32-.38.79-.6,1.28-.63.5-.03.98.15,1.34.49l6.85,6.39c.63.59.76,1.55.31,2.29l-8.92,14.47c-.33.54-.92.86-1.55.86ZM502.49,162.24h6.67l7.61-12.33-4.38-4.08-5.06,5.88c-.35.41-.88.64-1.42.63-.54-.01-1.05-.27-1.39-.69l-4.45-5.66-4.5,4.77,6.93,11.47Z" style="fill: #fff;"/>
      <path d="M505.64,174.87c-.37,0-.73-.17-.96-.47l-3.76-4.82c-.29-.37-.34-.86-.13-1.28.2-.42.63-.68,1.09-.68h7.53c.46,0,.89.26,1.09.68.2.42.15.91-.13,1.28l-3.76,4.82c-.23.29-.58.47-.96.47ZM504.37,170.05l1.28,1.64,1.28-1.64h-2.55Z" style="fill: #fff;"/>
    </g>
  </g>
</svg>