<?xml version="1.0" encoding="UTF-8"?>
<svg id="Capa_2" xmlns="http://www.w3.org/2000/svg" version="1.1" viewBox="0 0 1807.9 346.6">
  <!-- Generator: Adobe Illustrator 30.1.0, SVG Export Plug-In . SVG Version: 2.1.1 Build 65)  -->
  <defs>
    <style>
      .st0 {
        fill: #fff;
      }
    </style>
  </defs>
  <g>
    <g>
      <g>
        <path class="st0" d="M128.2,207.5v-76.1c0-21.8,12.9-35.8,36.1-35.8s36.1,13.3,36.1,35.8v76.1c0,22.8-11.8,35.8-36.1,35.8s-36.1-12.9-36.1-35.8ZM164.3,218.2c3.2,0,4.6-2.3,4.6-5.5v-86.5c0-3-1.5-5.5-4.6-5.5s-4.6,2.3-4.6,5.5v86.5c0,3.2,1.4,5.5,4.6,5.5Z"/>
        <path class="st0" d="M209,210.4v-80.7c0-20.8,12.7-34.1,35.7-34.1s35.2,12.6,35.2,34.1v20.4h-30.5v-24c0-3-1.5-5.4-4.6-5.4s-4.6,2.3-4.6,5.4v86.8c0,3,1.4,5.3,4.6,5.3s4.6-2.3,4.6-5.3v-27.8h30.5v25.3c0,19.8-12.3,32.9-35.7,32.9s-35.2-12.6-35.2-32.9Z"/>
        <path class="st0" d="M301.5,123.7h-18.5v-26h67.1v26h-18.5v117.6h-30v-117.6Z"/>
        <path class="st0" d="M357.3,97.6h57.9v25h-27.8v31.2h23.3v25h-23.3v37.3h27.8v25h-57.9V97.6Z"/>
        <path class="st0" d="M422.4,213.9l31.1-91h-30.9v-25.2h60.3v27.8l-30.8,90.5h31.4v25.2h-61.1v-27.3Z"/>
        <path class="st0" d="M490.5,211.8v-114.2h30.2v114.5c0,3.2,1.7,5.6,5,5.6s5-2.4,5-5.6v-114.5h30.2v114.2c0,19.4-11.9,31.4-35.3,31.4s-35.3-12-35.3-31.4Z"/>
        <path class="st0" d="M692.5,97.6h46.5l17,143.6h-31.3l-2.6-31.6h-11.8l-2.1,31.6h-30.6l15-143.6ZM720.4,184.6l-4.7-61.5h-.2l-3.9,61.5h8.8Z"/>
        <path class="st0" d="M756.2,134.4v-20.5c0-9.3,5.8-16.3,16.1-16.3s16.1,7.1,16.1,16.3v20.5c0,9.3-5.8,16.4-16.1,16.4s-16.1-7.1-16.1-16.4ZM772.3,147.5c8,0,12.7-5.4,12.7-13.4v-19.8c0-8-4.7-13.3-12.7-13.3s-12.7,5.5-12.7,13.3v19.8c0,7.8,4.7,13.4,12.7,13.4ZM764.2,107.1h8.6c5.5,0,8.1,2.3,8.1,8.2s-1.9,7.3-4.8,8.1c3.8.5,4.7,1.8,4.7,4.8v11.9h-7.1v-11.8c0-1.5-.5-2.1-2.5-2.1v13.9h-7.1v-33ZM771.6,120.6c1.7,0,2.2-1,2.2-3.7v-1.1c0-2.2-.5-3.2-2.2-3.2h-.3v8h.3Z"/>
        <polygon class="st0" points="18.4 97.4 18.4 241 44.5 241 44.5 123.4 55.6 123.4 55.6 241.3 81.6 241.3 81.6 123.4 92.8 123.4 92.8 241.3 118.8 241.3 118.8 97.6 118.8 97.4 18.4 97.4"/>
        <polygon class="st0" points="571 97.4 571 241 597 241 597 123.4 608.1 123.4 608.1 241.3 634.2 241.3 634.2 123.4 645.3 123.4 645.3 241.3 671.3 241.3 671.3 97.6 671.3 97.4 571 97.4"/>
      </g>
      <rect class="st0" x="888.7" y="96.3" width="7.5" height="144.9"/>
    </g>
    <g>
      <g>
        <path class="st0" d="M1389.7,241.2v-36.4l-2.9,14.8-4.7,21.6h-9.6l-4.3-21.6-2.6-14.8v36.4h-13.9v-57.8h20.4l4.7,22.7,1.5,8.7,1.6-8.7,4.5-22.7h20.3v57.8h-15Z"/>
        <path class="st0" d="M1434.1,242.7c-11,0-19.5-6.8-19.5-16.8v-27.3c0-10,8.4-16.7,19.5-16.7s19.4,6.7,19.4,16.7v27.3c0,10-8.4,16.8-19.4,16.8ZM1437.6,197.8c0-1.9-1.6-3-3.5-3s-3.6,1.1-3.6,3v29c0,1.9,1.7,3,3.6,3s3.5-1.1,3.5-3v-29Z"/>
        <path class="st0" d="M1483.2,242.7c-11.6,0-20.1-7.1-20.1-17.8v-25.2c0-10.7,8.5-17.8,20.1-17.8s18.1,6.8,18.1,16.8v6.5h-13.8v-6.6c0-2.3-1.5-3.8-4.3-3.8s-4.3,1.6-4.3,3.8v27.4c0,2.3,1.5,3.8,4.3,3.8s4.3-1.6,4.3-3.8v-6.6h13.8v6.5c0,10-7,16.8-18.1,16.8Z"/>
        <path class="st0" d="M1535.1,196.3v45h-15.5v-45h-10.9v-12.9h37.3v12.9h-10.9Z"/>
        <path class="st0" d="M1554.3,241.2v-57.8h33.1v12.6h-17.5v10.2h11.4v10.9h-11.4v10.8h17.5v13.4h-33.1Z"/>
        <path class="st0" d="M1613.2,228.1h17.4v13.1h-36.1v-3l18.5-42.5h-17.2v-12.3h35.6v3l-18.1,41.7Z"/>
        <path class="st0" d="M1658.9,242.7c-10.9,0-19.1-7.1-19.1-15.8v-43.5h15.7v43.4c0,1.9,1.7,3,3.4,3s3.6-1.1,3.6-3v-43.4h15v43.5c0,8.7-7.6,15.8-18.6,15.8Z"/>
        <path class="st0" d="M1725.8,241.2v-36.4l-2.9,14.8-4.7,21.6h-9.6l-4.3-21.6-2.6-14.8v36.4h-13.9v-57.8h20.4l4.7,22.7,1.5,8.7,1.6-8.7,4.5-22.7h20.3v57.8h-15Z"/>
        <path class="st0" d="M1773.9,241.2l-1-8.1h-9.2l-1.3,8.1h-14.2l11.7-57.8h18.1l11.5,57.8h-15.5ZM1768.8,202.9l-3.3,19.5h5.9l-2.6-19.5Z"/>
      </g>
      <g>
        <path class="st0" d="M1377,155.6h-14.8l-13.5-57.8h15.8l5.6,33.8,5.8-33.8h14.9l-13.9,57.8Z"/>
        <path class="st0" d="M1398.1,155.6v-57.8h15.5v57.8h-15.5Z"/>
        <path class="st0" d="M1443.6,155.6h-19.5v-57.8h19.5c11.6,0,18.9,7.7,18.9,17.7v23.8c0,10-7.3,16.3-18.9,16.3ZM1447,115.2c0-3.2-1.4-5-4.5-5h-2.9v33.2h2.9c3.1,0,4.5-1.8,4.5-5v-23.1Z"/>
        <path class="st0" d="M1495.2,155.6l-1-8.1h-9.2l-1.3,8.1h-14.2l11.7-57.8h18.1l11.5,57.8h-15.5ZM1490.1,117.3l-3.3,19.5h5.9l-2.6-19.5Z"/>
      </g>
    </g>
  </g>
  <g>
    <g>
      <path class="st0" d="M1165.8,325.1h-33.6c-73.8,0-133.9-60.1-133.9-133.9v-30.5c0-73.8,60.1-133.9,133.9-133.9h33.6c73.8,0,133.9,60.1,133.9,133.9v30.5c0,73.8-60.1,133.9-133.9,133.9ZM1132.2,42.8c-65,0-117.9,52.9-117.9,117.9v30.5c0,65,52.9,117.9,117.9,117.9h33.6c65,0,117.9-52.9,117.9-117.9v-30.5c0-65-52.9-117.9-117.9-117.9h-33.6Z"/>
      <path class="st0" d="M1201.7,70.2"/>
    </g>
    <g>
      <path class="st0" d="M1148.8,116.3c-1.3,0-2.6-.5-3.5-1.4-7.2-7-11-15-11.2-23.9-.4-15.6,10.6-27.7,11-28.2,1-1.1,2.5-1.7,4-1.6,1.5,0,2.9.8,3.8,2,7.1,9.2,10.6,18.5,10.4,27.5-.2,15.2-10.8,24.1-11.2,24.5-.9.8-2.1,1.2-3.2,1.2ZM1148.7,75.2c-2.3,3.9-4.7,9.5-4.5,15.6.1,4.5,1.7,8.8,4.6,12.8,2-2.9,4.2-7.3,4.3-13.1,0-4.9-1.4-10.1-4.4-15.3Z"/>
      <path class="st0" d="M1148.8,201c-1.3,0-2.6-.5-3.5-1.4-7.2-7-11-15-11.2-23.9-.4-15.6,10.6-27.7,11-28.2,1-1.1,2.5-1.7,4-1.6,1.5,0,2.9.8,3.8,2,7.1,9.2,10.6,18.5,10.4,27.5-.2,15.2-10.8,24.1-11.2,24.5-.9.8-2.1,1.2-3.2,1.2ZM1148.7,159.8c-2.3,3.9-4.7,9.5-4.5,15.6.1,4.5,1.7,8.8,4.6,12.8,2-2.9,4.2-7.3,4.3-13.1,0-4.9-1.4-10.1-4.4-15.3Z"/>
      <path class="st0" d="M1126.9,202.6c-.4,0-.8,0-1.2-.2-9.4-2.7-16.4-7.9-20.6-15.4-7.5-13.2-3.6-28.8-3.4-29.5.3-1.2,1.1-2.2,2.3-2.8,1.1-.5,2.4-.5,3.6,0,10.4,4.7,17.7,11.1,21.7,19,6.8,13.2,1.8,25.7,1.6,26.2-.7,1.6-2.2,2.6-3.9,2.6ZM1109.1,165.1c-.3,4.7,0,11.7,3.4,17.7,2.5,4.4,6.4,7.7,11.5,10,.6-3.6.7-9.3-2.3-15.2-2.5-4.9-6.7-9.1-12.6-12.5Z"/>
      <path class="st0" d="M1109.2,222.9h0c-10.1-.1-18.3-3.3-24.6-9.5-11-11-11.5-27.4-11.5-28.1,0-1.5.6-2.9,1.7-3.9,1.1-1,2.6-1.4,4.1-1.2,11.5,1.8,20.4,6.1,26.5,12.8,10.3,11.2,8.8,24.9,8.8,25.5-.3,2.6-2.5,4.5-5,4.5ZM1084.2,191.8c1,4.4,3.2,10.1,7.5,14.4,3.2,3.2,7.3,5.2,12.2,6.1-.5-3.5-2-8.2-5.9-12.4-3.3-3.6-8-6.3-13.8-8.1Z"/>
      <path class="st0" d="M1197.5,220.7c-1.7,0-3.4-.1-5.2-.3-2.6-.3-4.5-2.5-4.5-5.1,0-.6.3-14.4,12-24.1,6.9-5.8,16.4-8.9,28-9.2,1.5,0,2.9.6,3.9,1.7,1,1.1,1.4,2.6,1.2,4.1-.1.7-2.6,16.9-15,26.3-5.7,4.4-12.6,6.6-20.4,6.6ZM1220.9,192.7c-6,1-10.9,3.1-14.7,6.2-4.4,3.7-6.5,8.2-7.5,11.6,5-.2,9.3-1.7,12.9-4.5,4.9-3.7,7.7-9.1,9.3-13.3Z"/>
      <path class="st0" d="M1078.6,261.2c-15.1,0-26.8-10.5-27.3-11-1.1-1-1.7-2.5-1.6-4s.8-2.9,2-3.8c9.2-7.1,18.5-10.6,27.5-10.5,15.2.2,24.1,10.7,24.5,11.2,1.7,2,1.6,4.9-.3,6.8-7,7.2-15,11-23.8,11.3-.3,0-.7,0-1,0ZM1063.7,246.6c3.9,2.3,9.5,4.6,15.6,4.5,4.5-.1,8.8-1.7,12.8-4.7-2.9-2-7.3-4.2-13.1-4.3-4.9,0-10.1,1.4-15.3,4.5ZM1054.7,246.5h0,0Z"/>
      <path class="st0" d="M1223.4,256.8c-15.1,0-26.8-10.5-27.3-11-1.1-1-1.7-2.5-1.6-4s.8-2.9,2-3.8c9.2-7.1,18.4-10.6,27.5-10.5,15.2.2,24.1,10.7,24.5,11.2,1.7,2,1.6,4.9-.3,6.8-7,7.2-15,11-23.8,11.3-.3,0-.7,0-1,0ZM1208.5,242.1c3.9,2.3,9.5,4.6,15.6,4.5,4.5-.1,8.8-1.7,12.8-4.7-2.9-2-7.3-4.2-13.1-4.3-4.9,0-10.1,1.4-15.3,4.5ZM1199.5,242h0,0Z"/>
      <path class="st0" d="M1243.1,226.7c-7.8,0-13.8-2-14.2-2.1-1.4-.5-2.6-1.6-3.1-3-.5-1.4-.4-3,.3-4.3,5.6-10.2,12.7-17.1,21-20.6,14-5.9,26.4.2,26.9.4,2.3,1.2,3.4,3.9,2.5,6.3-3.5,9.4-9.4,16.1-17.3,19.9-5.5,2.6-11.1,3.4-16.1,3.4ZM1230.6,219.7h0,0ZM1238.8,216.2c4.5.5,10.6.5,16.1-2.1,4.1-1.9,7.4-5.1,9.9-9.4-3.4-.7-8.4-.9-13.7,1.3-4.5,1.9-8.6,5.3-12.3,10.2Z"/>
      <path class="st0" d="M1064.6,226.7c-4.9,0-10.6-.8-16.1-3.4-8-3.8-13.8-10.4-17.3-19.9-.9-2.4.2-5.2,2.5-6.3.5-.3,12.9-6.3,26.9-.4,8.4,3.5,15.4,10.4,21,20.6.7,1.3.8,2.9.3,4.3-.5,1.4-1.7,2.5-3.1,3-.4.1-6.4,2.1-14.2,2.1ZM1042.9,204.7c2.5,4.3,5.8,7.5,9.9,9.4,5.5,2.6,11.6,2.7,16.1,2.1-3.6-4.9-7.7-8.3-12.3-10.2-5.3-2.2-10.3-2-13.7-1.3Z"/>
      <path class="st0" d="M1238.7,178.7c-1.2,0-1.9,0-2.1,0-1.5-.1-2.9-.9-3.7-2.1-.9-1.2-1.2-2.8-.8-4.2,2.9-11.2,8-19.7,15.2-25.2,12.1-9.2,25.6-6.5,26.2-6.3,2.5.5,4.3,2.9,4,5.5-1.1,10-5,17.9-11.8,23.6-9.6,8-22,8.9-26.9,8.9ZM1237,173.6h0,0ZM1266.4,150.5c-3.5.2-8.4,1.2-12.9,4.7-3.9,3-7,7.3-9.3,13,4.5-.6,10.3-2.2,15-6.1,3.5-2.9,5.9-6.8,7.2-11.6Z"/>
      <path class="st0" d="M1064.8,180.7c-.2,0-.5,0-.7,0-.7,0-16.9-2.5-26.5-14.7-5.4-6.9-7.6-15.5-6.6-25.5.3-2.6,2.5-4.5,5-4.5h0c.6,0,14.4.2,24.2,11.7,5.9,6.9,9.1,16.3,9.5,27.9,0,1.5-.6,2.9-1.7,4-.9.8-2.2,1.3-3.4,1.3ZM1041,146.9c.3,5,1.8,9.3,4.6,12.8,3.8,4.8,9.2,7.6,13.4,9.2-1-6-3.2-10.9-6.4-14.6-3.7-4.4-8.3-6.4-11.6-7.3Z"/>
      <path class="st0" d="M1169.2,156c-.4,0-.9,0-1.3-.2-1.4-.4-2.6-1.4-3.3-2.8-4.9-10.5-6.3-20.3-4.1-29.1,3.6-14.8,15.8-21.2,16.3-21.4,2.3-1.2,5.1-.4,6.6,1.8,5.5,8.4,7.4,17.1,5.7,25.7-3,15.3-16.4,24.7-17,25.1-.9.6-1.9.9-2.9.9ZM1177.4,114.5c-2.6,2.4-5.7,6.2-7.1,11.8-1.2,4.8-.8,10.1.9,15.9,3.1-3.3,6.6-8.2,7.8-14.2.9-4.4.3-9-1.7-13.5Z"/>
      <path class="st0" d="M1131.9,156.1c-1,0-2-.3-2.9-.9-.6-.4-14-9.8-17-25.1-1.7-8.7.2-17.3,5.7-25.7,1.4-2.2,4.2-2.9,6.6-1.8.5.3,12.7,6.6,16.3,21.4,2.1,8.8.7,18.6-4.1,29.1-.6,1.4-1.8,2.4-3.3,2.8-.4.1-.9.2-1.3.2ZM1123.7,114.6c-2,4.6-2.6,9.1-1.7,13.5,1.2,6,4.7,10.9,7.8,14.2,1.8-5.8,2.1-11.2.9-15.9-1.4-5.6-4.5-9.4-7.1-11.8Z"/>
      <path class="st0" d="M1169.9,198.5c-2.5,0-4.6-1.8-5-4.3,0-.6-2.2-14.2,7.6-25.8,5.8-6.9,14.6-11.6,25.9-13.9,1.5-.3,3,0,4.2,1,1.2.9,1.9,2.3,1.9,3.8,0,.7.3,17.1-10.2,28.5-6,6.5-14.1,10.1-24.1,10.6,0,0-.2,0-.3,0ZM1193.7,166.2c-5.7,2-10.2,4.9-13.4,8.7-3.7,4.4-5,9.2-5.3,12.7,4.9-1.1,8.8-3.3,11.9-6.7,4.1-4.5,6-10.3,6.8-14.7Z"/>
      <path class="st0" d="M1197.4,119.7c-1.9,0-3.7-1-4.5-2.8-4.5-9-5.4-17.8-2.7-26.2,4.7-14.8,19.1-22.7,19.7-23,1.3-.7,2.9-.8,4.3-.2,1.4.6,2.5,1.7,2.9,3.1,3.6,11,3.9,20.9.8,29.4-5.2,14.3-18.1,19.2-18.7,19.4-.6.2-1.2.3-1.8.3ZM1209.2,80.5c-3.4,2.9-7.5,7.4-9.4,13.2-1.4,4.3-1.3,8.9.1,13.6,2.8-2.1,6.4-5.5,8.4-10.9,1.7-4.6,2-10,.9-15.9Z"/>
      <path class="st0" d="M1103.7,119.7c-.6,0-1.2-.1-1.8-.3-.5-.2-13.4-5.1-18.7-19.4-3.1-8.5-2.9-18.4.8-29.4.5-1.4,1.5-2.6,2.9-3.1,1.4-.6,3-.5,4.3.2.6.3,15,8.2,19.7,23,2.7,8.4,1.7,17.2-2.7,26.2-.9,1.8-2.7,2.8-4.5,2.8ZM1091.9,80.5c-1.1,6-.8,11.3.9,15.9,2,5.4,5.5,8.9,8.4,10.9,1.5-4.8,1.5-9.3.1-13.6-1.9-5.8-6-10.3-9.4-13.2Z"/>
      <path class="st0" d="M1090.6,158c-.2,0-.3,0-.5,0-.6,0-14.3-1.5-23.1-13.9-5.2-7.4-7.6-17-6.9-28.6,0-1.5.8-2.9,2-3.8,1.2-.9,2.7-1.2,4.2-.9.7.2,16.6,4,25,17.1,4.8,7.4,6.2,16.2,4.2,26-.5,2.4-2.6,4.1-5,4.1ZM1070.3,123.1c.5,6.1,2.2,11.1,5,15.2,3.3,4.7,7.6,7.1,10.9,8.4.2-5-1-9.4-3.4-13.2-3.3-5.1-8.4-8.4-12.5-10.3Z"/>
      <path class="st0" d="M1215.6,158.2c-2.4,0-4.5-1.7-5-4-2-9.8-.7-18.6,4-26,8.4-13.2,24.3-17.1,24.9-17.2,1.5-.4,3,0,4.2.9,1.2.9,2,2.3,2,3.8.7,11.6-1.6,21.2-6.8,28.7-8.7,12.5-22.4,14-23,14-.2,0-.3,0-.5,0ZM1235.6,123.1c-4.1,2-9.2,5.3-12.4,10.4-2.4,3.8-3.5,8.3-3.3,13.2,3.3-1.3,7.6-3.7,10.9-8.4,2.8-4,4.5-9.1,4.9-15.2Z"/>
      <path class="st0" d="M1159.7,276.3h-24.3c-1.8,0-3.4-.9-4.3-2.5l-22.8-37.8c-1.2-2-.9-4.5.7-6.1l19.2-20.4c1-1.1,2.4-1.6,3.9-1.6,1.5,0,2.8.8,3.8,1.9l12.3,15.6,13.5-15.7c.9-1,2.2-1.7,3.6-1.8,1.4,0,2.7.4,3.7,1.4l19.1,17.8c1.8,1.7,2.1,4.3.9,6.4l-24.9,40.4c-.9,1.5-2.6,2.4-4.3,2.4ZM1138.3,266.2h18.6l21.2-34.4-12.2-11.4-14.1,16.4c-1,1.1-2.5,1.8-4,1.8-1.5,0-2.9-.7-3.9-1.9l-12.4-15.8-12.6,13.3,19.3,32Z"/>
      <path class="st0" d="M1147.1,301.4c-1,0-2-.5-2.7-1.3l-10.5-13.5c-.8-1-.9-2.4-.4-3.6.6-1.2,1.7-1.9,3-1.9h21c1.3,0,2.5.7,3,1.9.6,1.2.4,2.5-.4,3.6l-10.5,13.5c-.6.8-1.6,1.3-2.7,1.3ZM1143.5,288l3.6,4.6,3.6-4.6h-7.1Z"/>
    </g>
  </g>
</svg>