<?xml version="1.0" encoding="UTF-8"?>
<svg id="Capa_2" xmlns="http://www.w3.org/2000/svg" version="1.1" viewBox="0 0 1080 1080">
  <!-- Generator: Adobe Illustrator 30.1.0, SVG Export Plug-In . SVG Version: 2.1.1 Build 65)  -->
  <defs>
    <style>
      .st0 {
        fill: #fff;
      }
    </style>
  </defs>
  <g>
    <g>
      <path class="st0" d="M436.4,895.2h-24l-21.7-93.3h25.5l9.1,54.5,9.4-54.5h24.1l-22.4,93.3Z"/>
      <path class="st0" d="M471.9,895.2v-93.3h25.1v93.3h-25.1Z"/>
      <path class="st0" d="M546.7,895.2h-31.5v-93.3h31.5c18.8,0,30.5,12.5,30.5,28.6v38.4c0,16.1-11.8,26.3-30.5,26.3ZM552.1,830c0-5.2-2.2-8.1-7.3-8.1h-4.6v53.5h4.6c5,0,7.3-2.9,7.3-8.1v-37.3Z"/>
      <path class="st0" d="M631.2,895.2l-1.7-13h-14.9l-2.1,13h-22.8l18.9-93.3h29.1l18.5,93.3h-25.1ZM623,833.5l-5.3,31.5h9.5l-4.2-31.5Z"/>
    </g>
    <g>
      <path class="st0" d="M242.7,1033.3v-58.7l-4.6,23.8-7.6,34.9h-15.4l-7-34.9-4.2-23.8v58.7h-22.4v-93.3h32.9l7.6,36.6,2.4,14,2.5-14,7.3-36.6h32.8v93.3h-24.2Z"/>
      <path class="st0" d="M315.8,1035.7c-17.8,0-31.4-10.9-31.4-27v-44c0-16.1,13.6-26.9,31.4-26.9s31.2,10.8,31.2,26.9v44c0,16.1-13.6,27-31.2,27ZM321.4,963.2c0-3.1-2.7-4.9-5.6-4.9s-5.7,1.8-5.7,4.9v46.8c0,3.1,2.8,4.9,5.7,4.9s5.6-1.8,5.6-4.9v-46.8Z"/>
      <path class="st0" d="M396.3,1035.7c-18.8,0-32.5-11.5-32.5-28.7v-40.6c0-17.2,13.7-28.7,32.5-28.7s29.1,10.9,29.1,27v10.5h-22.3v-10.6c0-3.6-2.4-6.2-6.9-6.2s-6.9,2.5-6.9,6.2v44.3c0,3.6,2.4,6.2,6.9,6.2s6.9-2.5,6.9-6.2v-10.6h22.3v10.5c0,16.1-11.3,27-29.1,27Z"/>
      <path class="st0" d="M481.3,960.7v72.6h-25.1v-72.6h-17.5v-20.7h60.2v20.7h-17.6Z"/>
      <path class="st0" d="M513.7,1033.3v-93.3h53.4v20.3h-28.3v16.4h18.4v17.7h-18.4v17.4h28.3v21.6h-53.4Z"/>
      <path class="st0" d="M610,1012.1h28v21.2h-58.3v-4.9l29.8-68.5h-27.7v-19.9h57.4v4.9l-29.3,67.2Z"/>
      <path class="st0" d="M685.2,1035.7c-17.5,0-30.8-11.5-30.8-25.5v-70.2h25.4v70c0,3.1,2.7,4.9,5.5,4.9s5.7-1.8,5.7-4.9v-70h24.2v70.2c0,14-12.2,25.5-30,25.5Z"/>
      <path class="st0" d="M794.5,1033.3v-58.7l-4.6,23.8-7.6,34.9h-15.4l-7-34.9-4.2-23.8v58.7h-22.4v-93.3h32.9l7.6,36.6,2.4,14,2.5-14,7.3-36.6h32.8v93.3h-24.2Z"/>
      <path class="st0" d="M873.5,1033.3l-1.7-13h-14.9l-2.1,13h-22.8l18.9-93.3h29.1l18.5,93.3h-25.1ZM865.2,971.5l-5.3,31.5h9.5l-4.2-31.5Z"/>
    </g>
  </g>
  <g>
    <g>
      <path class="st0" d="M577.6,696.2h-73.4c-161.3,0-292.6-131.3-292.6-292.6v-66.6c0-161.3,131.3-292.6,292.6-292.6h73.4c161.3,0,292.6,131.3,292.6,292.6v66.6c0,161.3-131.3,292.6-292.6,292.6ZM504.2,79.2c-142.1,0-257.7,115.6-257.7,257.8v66.6c0,142.1,115.6,257.8,257.7,257.8h73.4c142.1,0,257.7-115.6,257.7-257.8v-66.6c0-142.1-115.6-257.8-257.7-257.8h-73.4Z"/>
      <path class="st0" d="M656.1,138.9"/>
    </g>
    <g>
      <path class="st0" d="M540.4,239.8c-2.8,0-5.6-1.1-7.7-3.1-15.7-15.3-24-32.9-24.5-52.1-.9-34,23.1-60.6,24.1-61.7,2.2-2.4,5.4-3.7,8.7-3.6,3.3.1,6.3,1.7,8.3,4.3,15.4,20.1,23.1,40.4,22.8,60.2-.5,33.3-23.5,52.7-24.5,53.5-2.1,1.7-4.6,2.6-7.1,2.6ZM540.1,149.8c-5,8.5-10.2,20.7-9.8,34.1.3,9.9,3.7,19.3,10.1,28,4.4-6.3,9.2-16,9.4-28.6.2-10.8-3.1-22-9.7-33.5Z"/>
      <path class="st0" d="M540.4,424.8c-2.8,0-5.6-1.1-7.7-3.1-15.7-15.3-24-32.9-24.5-52.1-.9-34,23.1-60.6,24.1-61.7,2.2-2.4,5.4-3.7,8.7-3.6,3.3.1,6.3,1.7,8.3,4.3,15.4,20.1,23.1,40.4,22.8,60.2-.5,33.3-23.5,52.7-24.5,53.5-2.1,1.7-4.6,2.6-7.1,2.6ZM540.1,334.8c-5,8.5-10.2,20.7-9.8,34.1.3,9.9,3.7,19.3,10.1,28,4.4-6.3,9.2-16,9.4-28.6.2-10.8-3.1-22-9.7-33.5Z"/>
      <path class="st0" d="M492.7,428.4c-.9,0-1.7-.1-2.6-.4-20.6-6-35.8-17.3-45.1-33.6-16.5-29-7.9-63-7.5-64.4.7-2.6,2.5-4.8,5-6,2.5-1.2,5.3-1.2,7.8,0,22.7,10.3,38.7,24.3,47.5,41.6,14.8,28.9,3.9,56.1,3.4,57.2-1.5,3.5-4.9,5.7-8.6,5.7ZM453.7,346.5c-.7,10.3-.1,25.5,7.4,38.8,5.5,9.6,13.9,16.9,25.2,21.8,1.3-7.9,1.6-20.3-5-33.2-5.4-10.6-14.7-19.8-27.6-27.4Z"/>
      <path class="st0" d="M453.9,472.8h-.1c-22-.3-40-7.3-53.7-20.9-24.2-24-25-59.8-25.1-61.3,0-3.3,1.3-6.4,3.8-8.6,2.5-2.2,5.8-3.1,9-2.6,25.1,3.9,44.6,13.3,58,27.9,22.5,24.5,19.3,54.4,19.1,55.7-.7,5.6-5.4,9.8-11,9.8ZM399.3,404.7c2.3,9.6,6.9,22,16.4,31.5,7,7,16,11.4,26.7,13.4-1.2-7.6-4.4-17.9-12.9-27.2-7.3-7.9-17.4-13.8-30.1-17.6Z"/>
      <path class="st0" d="M646.8,467.8c-3.7,0-7.5-.2-11.4-.7-5.6-.7-9.9-5.5-9.8-11.1,0-1.3.6-31.4,26.1-52.7,15.2-12.7,35.7-19.5,61.1-20.2,3.3-.1,6.4,1.3,8.6,3.7,2.2,2.5,3.2,5.7,2.7,9-.2,1.5-5.7,36.9-32.8,57.6-12.6,9.6-27.5,14.5-44.5,14.5ZM698.1,406.6c-13.1,2.2-23.9,6.7-32.1,13.6-9.6,8.1-14.2,17.9-16.3,25.3,10.9-.5,20.3-3.8,28.2-9.8,10.6-8.1,16.8-19.9,20.3-29.1Z"/>
      <path class="st0" d="M387,556.4c-33,0-58.5-23-59.6-24-2.4-2.2-3.7-5.4-3.6-8.7.1-3.3,1.7-6.3,4.3-8.3,20.1-15.5,40.4-23.3,60.1-22.9,33.3.5,52.8,23.4,53.6,24.4,3.6,4.4,3.4,10.8-.6,14.8-15.3,15.8-32.8,24.1-52.1,24.7-.7,0-1.4,0-2.1,0ZM354.3,524.5c8.5,4.9,20.8,10.1,34.1,9.7,9.9-.3,19.3-3.7,28-10.2-6.3-4.4-16-9.1-28.6-9.3-10.8,0-22,3.1-33.5,9.7ZM334.8,524.3h0,0Z"/>
      <path class="st0" d="M703.5,546.7c-33,0-58.5-23-59.6-24-2.4-2.2-3.7-5.4-3.6-8.7.1-3.3,1.7-6.3,4.3-8.3,20.1-15.5,40.3-23.3,60.1-22.9,33.3.5,52.8,23.4,53.6,24.4,3.6,4.4,3.4,10.8-.6,14.8-15.3,15.8-32.8,24.1-52.1,24.7-.7,0-1.4,0-2.1,0ZM670.8,514.8c8.5,4.9,20.7,10.2,34.1,9.7,9.9-.3,19.3-3.7,28-10.2-6.3-4.4-16-9.1-28.6-9.3-10.8,0-22,3.1-33.5,9.7ZM651.3,514.6h0,0Z"/>
      <path class="st0" d="M746.6,480.9c-17.1,0-30.2-4.4-31-4.7-3.1-1.1-5.6-3.4-6.8-6.5-1.2-3.1-1-6.5.6-9.4,12.2-22.2,27.7-37.4,45.9-45,30.7-12.9,57.7.4,58.9,1,5.1,2.5,7.4,8.5,5.4,13.8-7.7,20.6-20.5,35.2-37.9,43.4-11.9,5.6-24.3,7.4-35.1,7.4ZM719.1,465.7h0,0ZM737.1,458.2c9.8,1.1,23.1,1,35.1-4.7,8.9-4.2,16.2-11.1,21.6-20.5-7.5-1.5-18.4-2-29.9,2.9-9.9,4.2-18.9,11.6-26.8,22.3Z"/>
      <path class="st0" d="M356.3,480.9c-10.8,0-23.2-1.7-35.1-7.4-17.4-8.2-30.2-22.8-37.9-43.4-2-5.3.3-11.3,5.4-13.8,1.1-.6,28.2-13.8,58.9-1,18.3,7.7,33.7,22.8,45.9,45,1.6,2.9,1.8,6.3.6,9.4-1.2,3.1-3.7,5.4-6.8,6.5-.9.3-14,4.7-31,4.7ZM309,432.9c5.4,9.4,12.7,16.3,21.6,20.5,12.1,5.7,25.4,5.8,35.1,4.7-7.9-10.7-16.9-18.2-26.8-22.3-11.6-4.9-22.4-4.4-29.9-2.9Z"/>
      <path class="st0" d="M737,376.2c-2.6,0-4.2-.1-4.5-.1-3.3-.2-6.3-1.9-8.2-4.6-1.9-2.7-2.6-6-1.7-9.2,6.3-24.6,17.4-43.1,33.2-55.1,26.5-20.2,56-14.1,57.2-13.9,5.5,1.2,9.3,6.4,8.7,12-2.3,21.9-11,39.2-25.8,51.5-21,17.5-48.2,19.4-58.8,19.4ZM733.3,365h0,0ZM797.4,314.4c-7.6.5-18.3,2.7-28.2,10.3-8.6,6.5-15.4,16-20.4,28.4,9.7-1.4,22.6-4.8,32.8-13.4,7.6-6.3,12.9-14.8,15.8-25.3Z"/>
      <path class="st0" d="M356.9,380.6c-.5,0-1,0-1.5-.1-1.5-.2-36.9-5.4-57.9-32.2-11.9-15.2-16.7-34-14.3-55.8.6-5.6,5.4-9.9,11-9.9h0c1.3,0,31.4.3,53,25.6,12.9,15.1,19.9,35.5,20.8,60.9.1,3.3-1.2,6.4-3.6,8.6-2.1,1.9-4.7,2.9-7.4,2.9ZM304.9,306.6c.6,10.9,4,20.3,10.1,28.1,8.2,10.5,20,16.6,29.3,20-2.3-13.1-6.9-23.8-13.9-32-8.2-9.5-18-14-25.4-16Z"/>
      <path class="st0" d="M585.1,326.6c-1,0-2-.1-2.9-.4-3.2-.9-5.8-3.1-7.2-6.1-10.6-23-13.7-44.5-9-63.7,7.8-32.3,34.5-46.2,35.7-46.8,5.1-2.6,11.2-.9,14.3,3.8,12,18.4,16.2,37.3,12.5,56.3-6.6,33.4-35.8,54-37.1,54.9-1.9,1.3-4.1,2-6.3,2ZM603,235.9c-5.6,5.2-12.5,13.6-15.4,25.8-2.5,10.4-1.8,22.1,2.1,34.9,6.7-7.2,14.5-18,17.1-31.1,1.9-9.7.7-19.6-3.7-29.6Z"/>
      <path class="st0" d="M503.5,326.7c-2.2,0-4.4-.7-6.3-2-1.2-.9-30.5-21.5-37.1-54.9-3.7-18.9.5-37.8,12.5-56.3,3.1-4.8,9.3-6.4,14.3-3.8,1.1.6,27.8,14.5,35.7,46.8,4.7,19.2,1.6,40.7-9,63.7-1.4,3-4,5.2-7.2,6.1-1,.3-1.9.4-2.9.4ZM485.6,235.9c-4.4,10-5.6,19.9-3.7,29.6,2.6,13.1,10.4,23.9,17.1,31.1,3.9-12.7,4.6-24.4,2.1-34.9-3-12.2-9.8-20.6-15.4-25.8Z"/>
      <path class="st0" d="M586.6,419.3c-5.4,0-10.1-3.9-10.9-9.3-.2-1.3-4.8-31,16.6-56.5,12.7-15.2,31.8-25.4,56.7-30.5,3.2-.6,6.5.1,9.1,2.2,2.6,2,4.1,5.1,4.2,8.4,0,1.5.8,37.3-22.3,62.4-13,14.2-30.8,22-52.7,23.3-.2,0-.4,0-.6,0ZM638.6,348.9c-12.6,4.4-22.4,10.7-29.3,19-8.1,9.6-10.8,20.1-11.7,27.7,10.6-2.4,19.3-7.3,26-14.5,9-9.8,13.1-22.5,14.9-32.2Z"/>
      <path class="st0" d="M646.7,247.2c-4.1,0-8-2.3-9.9-6.1-9.8-19.7-11.8-38.9-6-57.3,10.3-32.5,41.7-49.6,43.1-50.3,2.9-1.5,6.3-1.7,9.4-.5,3,1.2,5.4,3.7,6.4,6.8,8,24.1,8.5,45.7,1.7,64.3-11.5,31.2-39.6,42-40.8,42.5-1.3.5-2.6.7-3.9.7ZM672.5,161.5c-7.5,6.4-16.4,16.2-20.5,28.9-3,9.4-2.9,19.4.3,29.8,6.2-4.5,13.9-12.1,18.3-23.9,3.7-10.1,4.3-21.8,1.9-34.9Z"/>
      <path class="st0" d="M441.8,247.2c-1.3,0-2.6-.2-3.9-.7-1.2-.4-29.3-11.2-40.8-42.5-6.8-18.6-6.2-40.2,1.7-64.3,1-3.1,3.4-5.6,6.4-6.8,3-1.2,6.5-1,9.4.5,1.3.7,32.8,17.9,43.1,50.3,5.8,18.4,3.8,37.6-6,57.3-1.9,3.9-5.8,6.1-9.9,6.1ZM416,161.5c-2.4,13.1-1.8,24.8,1.9,34.9,4.3,11.8,12.1,19.4,18.3,23.9,3.2-10.4,3.3-20.4.3-29.8-4-12.7-13-22.5-20.5-28.9Z"/>
      <path class="st0" d="M413.1,331c-.3,0-.7,0-1,0-1.3-.1-31.2-3.2-50.4-30.3-11.4-16.2-16.5-37.2-15.1-62.5.2-3.3,1.8-6.3,4.4-8.3,2.6-2,6-2.7,9.2-1.9,1.5.3,36.3,8.7,54.7,37.3,10.4,16.2,13.5,35.3,9.2,56.9-1.1,5.2-5.6,8.9-10.9,8.9ZM368.8,254.6c1.1,13.2,4.7,24.4,11,33.1,7.3,10.2,16.7,15.6,23.9,18.3.4-10.9-2.1-20.5-7.5-28.9-7.2-11.2-18.4-18.3-27.3-22.6Z"/>
      <path class="st0" d="M686.3,331.2c-5.2,0-9.8-3.6-10.9-8.8-4.5-21.5-1.5-40.7,8.8-56.9,18.3-28.8,53-37.3,54.5-37.7,3.2-.8,6.5,0,9.2,1.9,2.6,2,4.3,5,4.5,8.2,1.5,25.3-3.4,46.4-14.8,62.6-19,27.3-49,30.5-50.3,30.7-.4,0-.7,0-1.1,0ZM730.2,254.6c-8.9,4.3-20,11.5-27.2,22.8-5.3,8.4-7.7,18-7.3,28.9,7.1-2.8,16.6-8.2,23.8-18.4,6.2-8.8,9.8-19.9,10.7-33.2Z"/>
      <path class="st0" d="M564.3,589.5h-53.1c-3.9,0-7.5-2-9.5-5.4l-49.8-82.5c-2.6-4.3-2-9.7,1.4-13.4l42.1-44.6c2.2-2.3,5.3-3.6,8.6-3.5,3.2.1,6.2,1.7,8.2,4.2l26.8,34,29.6-34.4c2-2.3,4.8-3.7,7.8-3.8,3-.2,6,.9,8.2,3l41.8,38.9c3.9,3.6,4.7,9.4,1.9,14l-54.4,88.2c-2,3.3-5.6,5.3-9.4,5.3ZM517.4,567.3h40.7l46.4-75.2-26.7-24.9-30.8,35.8c-2.2,2.5-5.4,3.9-8.7,3.9-3.3,0-6.4-1.6-8.5-4.2l-27.2-34.5-27.5,29.1,42.2,70Z"/>
      <path class="st0" d="M536.7,644.3c-2.3,0-4.4-1-5.8-2.8l-23-29.4c-1.7-2.2-2.1-5.3-.8-7.8,1.2-2.5,3.8-4.2,6.7-4.2h45.9c2.8,0,5.4,1.6,6.7,4.2,1.2,2.5.9,5.6-.8,7.8l-23,29.4c-1.4,1.8-3.6,2.8-5.8,2.8ZM528.9,614.9l7.8,10,7.8-10h-15.6Z"/>
    </g>
  </g>
</svg>