<?xml version="1.0" encoding="UTF-8"?>
<svg id="Capa_1" xmlns="http://www.w3.org/2000/svg" version="1.1" viewBox="0 0 1080 1080">
  <!-- Generator: Adobe Illustrator 29.8.1, SVG Export Plug-In . SVG Version: 2.1.1 Build 2)  -->
  <defs>
    <style>
      .st0 {
        fill: #fff;
      }
    </style>
  </defs>
  <path class="st0" d="M484.3,35c277.5-23.6,417.2,126.7,392.9,400.8-11.8,133.4-134,252.8-267.4,263.5-288.8,22.5-429-116.5-402.5-406.5,12.9-139.6,141.9-246,277-257.8ZM467.4,72.7c-292.2,32.7-316.4,521.3-19.7,585.5,183,39.4,380.6-37.2,395.8-243.2,19.1-256.1-128.4-369.9-376.1-342.3Z"/>
  <polygon class="st0" points="738.2 947 771.4 947.5 782.6 997.6 793.3 947.5 826.5 947 826.5 1043.8 801.2 1043.8 799.5 993.7 788.3 1043.2 772.5 1043.8 765.7 1010.6 763.5 1043.8 738.2 1043.8 738.2 947"/>
  <polygon class="st0" points="173.5 947 206.7 947.5 218 993.7 228.7 947.5 261.9 947 261.9 1043.8 236.6 1043.8 234.9 997.6 223.6 1043.2 207.3 1043.8 201.1 1006.1 198.8 1043.8 173.5 1043.8 173.5 947"/>
  <path class="st0" d="M578.3,839.4c-3.9-41.1-30.4-30.4-63.6-31.5v96.8c59.1,2.8,68.7-7.3,63.6-65.3h0ZM551.8,876.6l-11.8,6.8v-53.5h12.4v46.2l-.6.6Z"/>
  <path class="st0" d="M336.8,1038.7c-56.3,28.1-64.7-22.5-58-68.1,6.8-45.6,51.8-29.8,60.8-10.7s3.9,72.1-3.4,78.8h.6ZM316.5,968.4l-11.8,6.8v47.9c-.6,0,11.8,0,11.8,0v-54.6Z"/>
  <path class="st0" d="M683.6,947v76h12.4v-76h25.3v77.7c0,29.3-63.1,24.2-63.1,3.9v-82.2h25.3v.6Z"/>
  <path class="st0" d="M422.3,985.3h-21.4v-16.9h-12.4v54.6h12.4v-16.9h20.8c12.9,51.2-56.9,55.2-63.1,10.1-6.2-45-4.5-64.2,27.6-69.2,27.6-3.9,38.8,11.3,35.5,37.7l.6.6Z"/>
  <polygon class="st0" points="514.7 947 569.8 949.8 569.8 968.4 540 968.4 540 985.3 556.9 987.5 556.9 1006.1 540 1006.1 540 1023 569.8 1023 569.8 1043.8 514.7 1043.8 514.7 947"/>
  <polygon class="st0" points="641.3 947 611.5 1023 641.3 1023 641.3 1043.8 582.2 1043.8 611.5 968.4 582.2 968.4 582.2 947 641.3 947"/>
  <polygon class="st0" points="497.8 947 497.8 968.4 480.9 968.4 480.9 1043.8 456.1 1043.8 456.1 968.4 439.2 968.4 439.2 947 497.8 947"/>
  <path class="st0" d="M500.6,438.6c12.9-3.4,27.6,29.3,37.2,37.2,8.4,2.3,29.8-42.2,44.5-36l50.1,47.9c1.7,7.3-54.6,99.1-61.4,101.3l-68.7-1.1-52.9-94.6c1.7-6.2,46.7-52.9,51.8-54l-.6-.6ZM560.3,567.5c9-21.4,33.2-46.2,41.1-67,7.9-20.8-12.9-22.5-20.8-33.2-14.6,8.4-24.2,39.4-41.7,37.7-17.5-1.7-25.9-39.4-40-32.1l-21.4,25.3,38.8,68.7h45l-1.1.6Z"/>
  <path class="st0" d="M551.3,304.6c31,27,31,98.5-9,119.9-20.3-7.9-36-38.3-35.5-59.7.6-21.4,21.4-80.5,44.5-60.2h0ZM544.5,391.9c7.9-7.9,7.3-49-2.3-59.1-12.4,14.1-12.9,36-6.8,52.9,6.2,16.9,2.3,12.4,9,5.6v.6Z"/>
  <path class="st0" d="M712.3,380.1c26.5-.6,15.2,27.6,7.9,42.2-15.8,33.2-50.7,52.4-87.8,43.3-15.2-46.7,36.6-84.4,79.4-85.6h.6ZM653.7,442c22,2.8,43.3-17.5,46.2-37.7-20.8,6.2-37.7,16.9-46.2,37.7Z"/>
  <path class="st0" d="M542.3,111c34.9,24.8,43.9,90.1,10.1,118.8s-46.2-33.8-45.6-54c.6-20.3,19.1-65.9,35.5-64.7ZM544.5,147.6c-6.8-6.8-7.3,1.7-9,5.6-6.2,16.9-5.6,38.8,6.8,52.9,9.6-10.1,9.6-51.2,2.3-59.1v.6Z"/>
  <path class="st0" d="M606.4,202.7c20.3-2.8,28.1,43.9,25.9,60.2s-38.3,79.9-56.3,52.9c-18-27-9.6-107,30.4-112.6v-.6ZM590.7,290.6c19.7-14.1,21.4-37.2,16.9-59.1-20.3,12.4-23.6,37.7-16.9,59.1Z"/>
  <path class="st0" d="M349.2,223.6c33.2-11.3,76.6,43.3,76.6,77.7,0,51.8-54.6,15.8-69.8-9-15.2-24.8-23.6-62.5-6.2-68.1l-.6-.6ZM400.9,299c8.4-9-19.7-47.3-33.8-46.2-6.8,8.4,16.9,50.1,33.8,46.2Z"/>
  <path class="st0" d="M826,291.7c11.8,11.3-10.7,52.4-22,61.9-15.2,12.4-80.5,37.7-76.6,3.9,3.9-33.8,69.2-93.5,98.5-66.4v.6ZM801.2,312c-23.6.6-38.3,18-46.2,37.7,20.8-1.1,43.9-16.3,46.2-37.7Z"/>
  <path class="st0" d="M381.8,376.7c47.3,2.3,94.6,43.9,78.3,93.5-26.5,7.9-56.9-7.9-72.1-29.8-15.2-22-28.7-60.2-6.2-63.6h0ZM439.2,446.5c.6-23.1-21.4-38.3-42.2-42.2,6.8,19.7,18,41.1,42.2,42.2Z"/>
  <path class="st0" d="M737,224.1c7.3-1.7,18.6-3.4,21.4,6.2,5.6,45.6-25.3,101.3-75.4,96.8-20.8-40,12.4-94,54-102.5v-.6ZM734.2,252.8c-21.4,6.2-35.5,29.3-33.8,50.7,19.7-9.6,35.5-27.6,33.8-50.7Z"/>
  <path class="st0" d="M677.9,127.3c20.3-3.9,22,18,22.5,34.9,1.7,35.5-16.3,78.8-56.3,77.7-32.1-28.7-3.4-104.7,33.8-112.6ZM679.1,160c-25.3,5.6-27.6,32.7-25.3,54.6,19.7-10.7,24.2-34.3,25.3-54.6Z"/>
  <path class="st0" d="M774.8,409.3c40.5-6.8,70.4,6.2,37.2,45.6-19.7,23.6-50.1,29.3-79.9,24.8-47.9-7.3,10.1-64.7,42.8-70.4h0ZM797.3,429.6c-22.5-.6-43.3,10.1-54.6,29.3,19.7,1.1,50.1-6.2,54.6-29.3Z"/>
  <path class="st0" d="M299.1,409.3c35.5-6.8,76.6,12.4,90.6,46.7,14.1,34.3-60.2,27-81.1,13.5-20.8-13.5-48.4-52.4-9.6-59.7v-.6ZM363.2,458.9c-12.4-20.8-34.9-31-59.1-29.3,12.4,20.8,34.9,31,59.1,29.3Z"/>
  <path class="st0" d="M397,126.7c40-3.4,66.4,45.6,62.5,81.1-7.9,70.4-72.6,7.3-71.5-41.7,1.1-49,8.4-26.5,9-40v.6ZM434.7,215.1c8.4-21.4-2.3-46.2-20.8-59.1-2.8,23.1,1.7,44.5,20.8,59.1Z"/>
  <path class="st0" d="M321.6,534.3c-11.8-20.3,35.5-40,51.8-41.1,25.9-2.3,58,6.8,69.8,31.5-14.1,31-51.2,36.6-81.6,30.4-30.4-6.2-38.8-18.6-40-20.8h0ZM413.9,521.9c-22-8.4-38.3-11.8-59.1,2.3,15.2,13.5,46.2,15.8,59.1-2.3Z"/>
  <path class="st0" d="M686.4,485.3c20.3-3.4,87.8,3.4,79.4,32.7-11.3,38.8-106.4,37.7-123.9-2.3-1.1-12.4,33.2-28.7,44.5-30.4h0ZM734.2,509.6c-12.4-1.1-22.5-5.6-35.5-3.9s-22,6.2-23.6,12.4c18.6,5.1,52.4,18,59.1-8.4Z"/>
  <path class="st0" d="M479.8,202.7c14.1-3.4,38.3,32.1,42.2,45,6.2,21.4,2.8,59.7-14.1,76.6-29.8-9-54-47.9-50.7-79.9,3.4-32.1,11.8-38.8,22.5-41.7h0ZM493.8,290.6c19.1-5.1,2.8-58.5-6.2-59.1-16.3,18,0,41.1,6.2,59.1Z"/>
  <path class="st0" d="M285.5,278.7c50.7-2.3,91.2,51.2,73.2,99.1-33.8,2.3-76-28.7-80.5-63.6-4.5-34.9-2.8-32.1,6.8-35.5h.6ZM337.9,349.7c2.3-22-17.5-42.8-37.7-46.2,2.8,24.2,15.2,38.8,37.7,46.2Z"/>
  <path class="st0" d="M596.3,346.9c10.1-10.7,62.5-40.5,69.8-19.7,7.3,20.8-9,50.7-19.7,63.6s-50.7,37.7-68.1,19.1c-4.5-22,2.3-46.7,17.5-63.1h.6ZM599.1,391.9c25.3,0,38.8-23.6,42.2-46.2-23.6,8.4-36,22-42.2,46.2Z"/>
  <path class="st0" d="M501.7,425.1c-53.5,2.3-79.9-56.9-63.1-103,49,2.3,79.9,57.4,63.1,103ZM485.4,404.3c3.4-24.8-8.4-51.2-33.8-59.1.6,25.3,7.9,49.5,33.8,59.1Z"/>
  <polyline class="st0" points="485.4 904.2 485.4 807.9 460.1 807.9 460.1 904.2"/>
  <polyline class="st0" points="460.1 904.2 460.1 807.9 485.4 807.9"/>
  <path class="st0" d="M410,904.8"/>
  <path class="st0" d="M397,904.2c32.1,7.9,28.7-13.5,34.9-38.3,6.2-24.8,13.5-56.3,11.3-58l-23.1,3.9-8.4,46.7-11.3-50.1-24.8,1.7,21.4,94.6"/>
  <path class="st0" d="M658.2,901.4l-17.5-96.3-31.5,3.4-18.6,92.9h25.3v-16.9h16.9v16.9h25.3,0ZM618.3,861.4l6.2-38.3,5.1,38.3h-11.3Z"/>
  <path class="st0" d="M906.5,1043.8l-17.5-96.3-31.5,3.4-18.6,92.9h25.3v-16.9h16.9v16.9h25.3,0ZM866.5,1003.8l6.2-38.3,5.1,38.3h-11.3Z"/>
</svg>